<svg width="384" height="316" viewBox="0 0 384 316" fill="none" xmlns="http://www.w3.org/2000/svg">
<path d="M0.465164 144.498C0.465164 143.564 1.22182 142.807 2.1552 142.807H4.69025V169.003H2.1552C1.22182 169.003 0.465164 168.246 0.465164 167.313V144.498Z" fill="#75706D"/>
<path opacity="0.4" d="M0.465164 144.498C0.465164 143.564 1.22182 142.807 2.1552 142.807H4.69025V169.003H2.1552C1.22182 169.003 0.465164 168.246 0.465164 167.313V144.498Z" fill="url(#paint0_linear_1_114)"/>
<path opacity="0.4" d="M0.465164 144.498C0.465164 143.564 1.22182 142.807 2.1552 142.807H4.69025V169.003H2.1552C1.22182 169.003 0.465164 168.246 0.465164 167.313V144.498Z" fill="url(#paint1_linear_1_114)"/>
<path opacity="0.4" d="M0.465164 144.498C0.465164 143.564 1.22182 142.807 2.1552 142.807H4.69025V169.003H2.1552C1.22182 169.003 0.465164 168.246 0.465164 167.313V144.498Z" fill="url(#paint2_linear_1_114)"/>
<g filter="url(#filter0_f_1_114)">
<path d="M1.31076 144.075C1.31076 143.842 1.49992 143.653 1.73327 143.653C1.96661 143.653 2.15578 143.842 2.15578 144.075V145.343H1.31076V144.075Z" fill="white"/>
</g>
<g filter="url(#filter1_f_1_114)">
<path d="M1.31076 145.343H2.15578V166.89C2.15578 167.124 1.96661 167.313 1.73327 167.313C1.49992 167.313 1.31076 167.124 1.31076 166.89V145.343Z" fill="white" fill-opacity="0.8"/>
</g>
<path d="M0.465164 196.044C0.465164 195.11 1.22182 194.354 2.1552 194.354H4.69025V248.435H2.1552C1.22182 248.435 0.465164 247.678 0.465164 246.745V196.044Z" fill="#75706D"/>
<path opacity="0.4" d="M0.465164 196.044C0.465164 195.11 1.22182 194.354 2.1552 194.354H4.69025V248.435H2.1552C1.22182 248.435 0.465164 247.678 0.465164 246.745V196.044Z" fill="url(#paint3_linear_1_114)"/>
<path opacity="0.4" d="M0.465164 196.044C0.465164 195.11 1.22182 194.354 2.1552 194.354H4.69025V248.435H2.1552C1.22182 248.435 0.465164 247.678 0.465164 246.745V196.044Z" fill="url(#paint4_linear_1_114)"/>
<path opacity="0.4" d="M0.465164 196.044C0.465164 195.11 1.22182 194.354 2.1552 194.354H4.69025V248.435H2.1552C1.22182 248.435 0.465164 247.678 0.465164 246.745V196.044Z" fill="url(#paint5_linear_1_114)"/>
<g filter="url(#filter2_f_1_114)">
<path d="M1.31076 196.466C1.31076 196.233 1.49992 196.044 1.73327 196.044C1.96661 196.044 2.15578 196.233 2.15578 196.466V197.734H1.31076V196.466Z" fill="white"/>
</g>
<g filter="url(#filter3_f_1_114)">
<path d="M1.31076 197.734H2.15578V246.322C2.15578 246.556 1.96661 246.745 1.73327 246.745C1.49992 246.745 1.31076 246.556 1.31076 246.322V197.734Z" fill="white" fill-opacity="0.8"/>
</g>
<path d="M0.465164 263.645C0.465164 262.712 1.22182 261.955 2.1552 261.955H4.69025V316.036H2.1552C1.22182 316.036 0.465164 315.279 0.465164 314.346V263.645Z" fill="#75706D"/>
<path opacity="0.4" d="M0.465164 263.645C0.465164 262.712 1.22182 261.955 2.1552 261.955H4.69025V316.036H2.1552C1.22182 316.036 0.465164 315.279 0.465164 314.346V263.645Z" fill="url(#paint6_linear_1_114)"/>
<path opacity="0.4" d="M0.465164 263.645C0.465164 262.712 1.22182 261.955 2.1552 261.955H4.69025V316.036H2.1552C1.22182 316.036 0.465164 315.279 0.465164 314.346V263.645Z" fill="url(#paint7_linear_1_114)"/>
<path opacity="0.4" d="M0.465164 263.645C0.465164 262.712 1.22182 261.955 2.1552 261.955H4.69025V316.036H2.1552C1.22182 316.036 0.465164 315.279 0.465164 314.346V263.645Z" fill="url(#paint8_linear_1_114)"/>
<g filter="url(#filter4_f_1_114)">
<path d="M1.31076 264.067C1.31076 263.834 1.49992 263.645 1.73327 263.645C1.96661 263.645 2.15578 263.834 2.15578 264.067V265.335H1.31076V264.067Z" fill="white"/>
</g>
<g filter="url(#filter5_f_1_114)">
<path d="M1.31076 265.335H2.15578V313.924C2.15578 314.157 1.96661 314.346 1.73327 314.346C1.49992 314.346 1.31076 314.157 1.31076 313.924V265.335Z" fill="white" fill-opacity="0.8"/>
</g>
<path d="M383.258 214.634C383.258 213.701 382.501 212.944 381.568 212.944H379.033V296.601H381.568C382.501 296.601 383.258 295.844 383.258 294.911V214.634Z" fill="#75706D"/>
<path opacity="0.4" d="M383.258 214.634C383.258 213.701 382.501 212.944 381.568 212.944H379.033V296.601H381.568C382.501 296.601 383.258 295.844 383.258 294.911V214.634Z" fill="url(#paint9_linear_1_114)"/>
<path opacity="0.4" d="M383.258 214.634C383.258 213.701 382.501 212.944 381.568 212.944H379.033V296.601H381.568C382.501 296.601 383.258 295.844 383.258 294.911V214.634Z" fill="url(#paint10_linear_1_114)"/>
<path opacity="0.4" d="M383.258 214.634C383.258 213.701 382.501 212.944 381.568 212.944H379.033V296.601H381.568C382.501 296.601 383.258 295.844 383.258 294.911V214.634Z" fill="url(#paint11_linear_1_114)"/>
<g filter="url(#filter6_f_1_114)">
<path d="M382.412 215.057C382.412 214.823 382.223 214.634 381.99 214.634C381.756 214.634 381.567 214.823 381.567 215.057V216.324H382.412V215.057Z" fill="white"/>
</g>
<g filter="url(#filter7_f_1_114)">
<path d="M382.412 216.324H381.567V294.488C381.567 294.721 381.756 294.911 381.99 294.911C382.223 294.911 382.412 294.721 382.412 294.488V216.324Z" fill="white" fill-opacity="0.8"/>
</g>
<g clip-path="url(#clip0_1_114)">
<rect x="3" width="378" height="779.105" rx="63.3762" fill="#C7C4BF"/>
<g filter="url(#filter8_f_1_114)">
<rect x="4.38631" y="1.38631" width="375.227" height="776.333" rx="61.9899" stroke="#4D4946" stroke-width="2.77262"/>
</g>
<g filter="url(#filter9_f_1_114)">
<rect x="3.4621" y="0.462103" width="377.076" height="778.181" rx="62.9141" stroke="#4A4643" stroke-width="0.924205"/>
</g>
<g filter="url(#filter10_f_1_114)">
<rect x="8.5322" y="5.53217" width="367.503" height="768.041" rx="57.844" stroke="#D9D6D1" stroke-width="0.924205"/>
</g>
<rect x="8.73117" y="5.7302" width="367.107" height="767.645" rx="57.646" stroke="#F3F0EB" stroke-width="0.369682"/>
</g>
<g clip-path="url(#clip1_1_114)">
<rect x="8.91602" y="5.91504" width="366.91" height="767.09" rx="57.4611" fill="#000100"/>
<g filter="url(#filter11_f_1_114)">
<rect x="10.7644" y="7.76345" width="363.213" height="763.394" rx="55.6127" stroke="url(#paint12_radial_1_114)" stroke-width="3.69682"/>
</g>
</g>
<g clip-path="url(#clip2_1_114)">
<rect x="17.3653" y="14.3652" width="349.837" height="750.375" rx="49.856" fill="#DAE2D3"/>
<g clip-path="url(#clip3_1_114)">
<rect width="351.182" height="760.427" transform="translate(16.5196 9.76147)" fill="white"/>
<rect x="35.25" y="65.9507" width="41.206" height="41.206" rx="20.603" fill="#F6F7F9"/>
<path fill-rule="evenodd" clip-rule="evenodd" d="M52.3828 87.2157C52.0171 86.8499 52.0171 86.257 52.3828 85.8913L57.6804 80.5936C58.0462 80.2279 58.6391 80.2279 59.0048 80.5936C59.3706 80.9593 59.3706 81.5523 59.0048 81.918L54.3694 86.5535L59.0048 91.1889C59.3706 91.5546 59.3706 92.1476 59.0048 92.5133C58.6391 92.879 58.0462 92.879 57.6804 92.5133L52.3828 87.2157Z" fill="#171717"/>
<path d="M159.292 93.3066C158.432 93.3066 157.657 93.1605 156.966 92.8683C156.28 92.5761 155.713 92.1603 155.263 91.6209C154.819 91.0759 154.53 90.4325 154.395 89.6908L155.946 89.4464C156.143 90.2105 156.55 90.809 157.168 91.2416C157.792 91.6686 158.525 91.8822 159.368 91.8822C159.913 91.8822 160.405 91.7979 160.843 91.6293C161.287 91.4551 161.638 91.2079 161.896 90.8876C162.155 90.5673 162.284 90.1881 162.284 89.7498C162.284 89.4801 162.236 89.2497 162.141 89.0587C162.051 88.862 161.925 88.6962 161.762 88.5614C161.604 88.4209 161.424 88.3029 161.222 88.2074C161.02 88.1119 160.809 88.0332 160.59 87.9714L157.497 87.0527C157.16 86.9516 156.834 86.8251 156.519 86.6734C156.204 86.5161 155.924 86.3222 155.676 86.0919C155.429 85.8559 155.232 85.5749 155.086 85.249C154.94 84.9175 154.867 84.527 154.867 84.0775C154.867 83.3583 155.053 82.7458 155.423 82.2401C155.8 81.7288 156.308 81.3383 156.949 81.0686C157.59 80.7989 158.312 80.6668 159.115 80.6724C159.93 80.678 160.657 80.8241 161.298 81.1107C161.944 81.3916 162.478 81.7962 162.899 82.3244C163.326 82.8526 163.613 83.4847 163.759 84.2208L162.166 84.4989C162.082 84.0044 161.894 83.5802 161.601 83.2262C161.315 82.8666 160.955 82.5913 160.523 82.4002C160.09 82.2036 159.615 82.1024 159.098 82.0968C158.604 82.0912 158.157 82.1699 157.758 82.3328C157.359 82.4958 157.042 82.7233 156.806 83.0155C156.57 83.3021 156.452 83.6336 156.452 84.0101C156.452 84.3809 156.558 84.6815 156.772 84.9119C156.986 85.1367 157.247 85.3165 157.556 85.4513C157.87 85.5805 158.177 85.6873 158.475 85.7716L160.784 86.4374C161.048 86.5105 161.351 86.6116 161.694 86.7409C162.043 86.8701 162.38 87.0527 162.706 87.2887C163.031 87.5191 163.301 87.8281 163.515 88.2158C163.728 88.5979 163.835 89.0811 163.835 89.6655C163.835 90.2499 163.717 90.7696 163.481 91.2248C163.251 91.6799 162.928 92.062 162.512 92.371C162.096 92.6744 161.613 92.9048 161.062 93.0621C160.511 93.2251 159.921 93.3066 159.292 93.3066ZM170.685 93.0537C170.146 93.1605 169.612 93.2026 169.084 93.1801C168.561 93.1633 168.095 93.0593 167.685 92.8683C167.275 92.6716 166.963 92.3682 166.749 91.958C166.569 91.5984 166.471 91.236 166.454 90.8708C166.443 90.4999 166.437 90.0813 166.437 89.6149V81.4225H167.938V89.5475C167.938 89.9184 167.94 90.2358 167.946 90.4999C167.957 90.764 168.016 90.9916 168.123 91.1826C168.325 91.5422 168.646 91.7529 169.084 91.8147C169.528 91.8765 170.062 91.8597 170.685 91.7642V93.0537ZM164.592 85.19V83.9511H170.685V85.19H164.592ZM175.121 93.3066C174.441 93.3066 173.871 93.1829 173.41 92.9357C172.955 92.6829 172.609 92.3513 172.373 91.9412C172.143 91.531 172.028 91.0815 172.028 90.5926C172.028 90.115 172.118 89.702 172.297 89.3537C172.483 88.9997 172.741 88.7075 173.073 88.4771C173.404 88.2411 173.8 88.0557 174.261 87.9208C174.694 87.8028 175.177 87.7017 175.711 87.6174C176.25 87.5275 176.795 87.446 177.346 87.373C177.897 87.2999 178.411 87.2297 178.888 87.1623L178.349 87.4741C178.366 86.665 178.203 86.0666 177.86 85.6789C177.523 85.2912 176.939 85.0973 176.107 85.0973C175.556 85.0973 175.073 85.2237 174.657 85.4766C174.247 85.7238 173.958 86.1284 173.789 86.6903L172.365 86.2604C172.584 85.4626 173.008 84.836 173.637 84.3809C174.267 83.9258 175.096 83.6982 176.124 83.6982C176.95 83.6982 177.658 83.8471 178.248 84.1449C178.843 84.4371 179.27 84.881 179.529 85.4766C179.658 85.7575 179.74 86.0638 179.773 86.3953C179.807 86.7212 179.824 87.0639 179.824 87.4236V93.0537H178.492V90.8708L178.804 91.073C178.461 91.8091 177.981 92.3654 177.363 92.7419C176.75 93.1183 176.003 93.3066 175.121 93.3066ZM175.348 92.0507C175.888 92.0507 176.354 91.9552 176.748 91.7642C177.146 91.5675 177.467 91.3118 177.708 90.9972C177.95 90.6769 178.107 90.3285 178.18 89.9521C178.265 89.6711 178.31 89.3593 178.315 89.0165C178.326 88.6681 178.332 88.4012 178.332 88.2158L178.855 88.4434C178.366 88.5108 177.885 88.5754 177.413 88.6372C176.941 88.699 176.495 88.7665 176.073 88.8395C175.652 88.9069 175.273 88.9884 174.935 89.0839C174.688 89.1626 174.455 89.2638 174.236 89.3874C174.022 89.511 173.848 89.6711 173.713 89.8678C173.584 90.0588 173.519 90.2976 173.519 90.5842C173.519 90.8314 173.581 91.0674 173.705 91.2922C173.834 91.5169 174.031 91.6996 174.295 91.84C174.565 91.9805 174.916 92.0507 175.348 92.0507ZM187.098 93.0537C186.558 93.1605 186.024 93.2026 185.496 93.1801C184.974 93.1633 184.507 93.0593 184.097 92.8683C183.687 92.6716 183.375 92.3682 183.161 91.958C182.982 91.5984 182.883 91.236 182.867 90.8708C182.855 90.4999 182.85 90.0813 182.85 89.6149V81.4225H184.35V89.5475C184.35 89.9184 184.353 90.2358 184.358 90.4999C184.37 90.764 184.429 90.9916 184.535 91.1826C184.738 91.5422 185.058 91.7529 185.496 91.8147C185.94 91.8765 186.474 91.8597 187.098 91.7642V93.0537ZM181.004 85.19V83.9511H187.098V85.19H181.004ZM189.114 82.3412V80.7904H190.614V82.3412H189.114ZM189.114 93.0537V83.9511H190.614V93.0537H189.114ZM196.582 93.2981C195.498 93.2981 194.607 93.0621 193.91 92.5902C193.219 92.1125 192.795 91.4467 192.638 90.5926L194.172 90.3482C194.295 90.8427 194.579 91.236 195.023 91.5282C195.467 91.8147 196.017 91.958 196.675 91.958C197.299 91.958 197.787 91.8288 198.141 91.5703C198.495 91.3118 198.672 90.9607 198.672 90.5168C198.672 90.2583 198.613 90.0504 198.495 89.8931C198.377 89.7301 198.133 89.5784 197.762 89.4379C197.397 89.2975 196.843 89.1289 196.102 88.9322C195.298 88.7187 194.666 88.4968 194.205 88.2664C193.745 88.036 193.416 87.7691 193.219 87.4657C193.023 87.1623 192.924 86.7942 192.924 86.3616C192.924 85.8278 193.07 85.3614 193.362 84.9625C193.655 84.5579 194.062 84.2461 194.585 84.0269C195.113 83.8078 195.725 83.6982 196.422 83.6982C197.113 83.6982 197.731 83.8078 198.276 84.0269C198.821 84.2461 199.26 84.5579 199.591 84.9625C199.928 85.3614 200.128 85.8278 200.189 86.3616L198.655 86.6397C198.582 86.1509 198.346 85.766 197.948 85.485C197.554 85.2041 197.046 85.0552 196.422 85.0383C195.832 85.0158 195.352 85.1198 194.981 85.3502C194.615 85.5805 194.433 85.8924 194.433 86.2857C194.433 86.5049 194.5 86.6931 194.635 86.8504C194.776 87.0078 195.031 87.1567 195.402 87.2971C195.779 87.4376 196.324 87.5977 197.037 87.7775C197.841 87.9798 198.473 88.2018 198.934 88.4434C199.4 88.6794 199.732 88.9603 199.928 89.2862C200.125 89.6065 200.223 90.0026 200.223 90.4746C200.223 91.3512 199.9 92.0423 199.254 92.548C198.608 93.0481 197.717 93.2981 196.582 93.2981ZM207.164 93.0537C206.625 93.1605 206.091 93.2026 205.563 93.1801C205.04 93.1633 204.574 93.0593 204.164 92.8683C203.754 92.6716 203.442 92.3682 203.228 91.958C203.048 91.5984 202.95 91.236 202.933 90.8708C202.922 90.4999 202.916 90.0813 202.916 89.6149V81.4225H204.417V89.5475C204.417 89.9184 204.419 90.2358 204.425 90.4999C204.436 90.764 204.495 90.9916 204.602 91.1826C204.804 91.5422 205.125 91.7529 205.563 91.8147C206.007 91.8765 206.541 91.8597 207.164 91.7642V93.0537ZM201.071 85.19V83.9511H207.164V85.19H201.071ZM209.181 82.3412V80.7904H210.681V82.3412H209.181ZM209.181 93.0537V83.9511H210.681V93.0537H209.181ZM217.045 93.3066C216.124 93.3066 215.34 93.1015 214.694 92.6913C214.053 92.2755 213.564 91.7052 213.227 90.9803C212.89 90.2555 212.716 89.4295 212.704 88.5024C212.716 87.5528 212.893 86.7184 213.235 85.9992C213.584 85.2743 214.081 84.7096 214.727 84.3051C215.373 83.9005 216.152 83.6982 217.062 83.6982C218.023 83.6982 218.849 83.9342 219.54 84.4062C220.237 84.8782 220.703 85.5244 220.939 86.3447L219.456 86.7914C219.264 86.2632 218.953 85.8531 218.52 85.5609C218.093 85.2687 217.601 85.1226 217.045 85.1226C216.421 85.1226 215.907 85.2687 215.503 85.5609C215.098 85.8474 214.797 86.2464 214.601 86.7577C214.404 87.2634 214.303 87.845 214.297 88.5024C214.309 89.5138 214.542 90.3313 214.997 90.955C215.458 91.5731 216.14 91.8822 217.045 91.8822C217.641 91.8822 218.135 91.7473 218.528 91.4776C218.922 91.2023 219.22 90.8061 219.422 90.2892L220.939 90.6853C220.624 91.5338 220.133 92.1828 219.464 92.6323C218.795 93.0818 217.989 93.3066 217.045 93.3066ZM226.098 93.2981C225.013 93.2981 224.123 93.0621 223.426 92.5902C222.735 92.1125 222.311 91.4467 222.153 90.5926L223.687 90.3482C223.811 90.8427 224.095 91.236 224.539 91.5282C224.983 91.8147 225.533 91.958 226.191 91.958C226.814 91.958 227.303 91.8288 227.657 91.5703C228.011 91.3118 228.188 90.9607 228.188 90.5168C228.188 90.2583 228.129 90.0504 228.011 89.8931C227.893 89.7301 227.649 89.5784 227.278 89.4379C226.913 89.2975 226.359 89.1289 225.617 88.9322C224.814 88.7187 224.182 88.4968 223.721 88.2664C223.26 88.036 222.932 87.7691 222.735 87.4657C222.538 87.1623 222.44 86.7942 222.44 86.3616C222.44 85.8278 222.586 85.3614 222.878 84.9625C223.17 84.5579 223.578 84.2461 224.1 84.0269C224.629 83.8078 225.241 83.6982 225.938 83.6982C226.629 83.6982 227.247 83.8078 227.792 84.0269C228.337 84.2461 228.775 84.5579 229.107 84.9625C229.444 85.3614 229.643 85.8278 229.705 86.3616L228.171 86.6397C228.098 86.1509 227.862 85.766 227.463 85.485C227.07 85.2041 226.561 85.0552 225.938 85.0383C225.348 85.0158 224.867 85.1198 224.497 85.3502C224.131 85.5805 223.949 85.8924 223.949 86.2857C223.949 86.5049 224.016 86.6931 224.151 86.8504C224.291 87.0078 224.547 87.1567 224.918 87.2971C225.294 87.4376 225.839 87.5977 226.553 87.7775C227.357 87.9798 227.989 88.2018 228.449 88.4434C228.916 88.6794 229.247 88.9603 229.444 89.2862C229.641 89.6065 229.739 90.0026 229.739 90.4746C229.739 91.3512 229.416 92.0423 228.77 92.548C228.124 93.0481 227.233 93.2981 226.098 93.2981Z" fill="#171717"/>
<rect x="307.767" y="65.9507" width="41.206" height="41.206" rx="20.603" fill="#F6F7F9"/>
<g clip-path="url(#clip4_1_114)">
<path d="M332.585 87.0219C332.585 86.7441 332.667 86.4725 332.822 86.2415C332.976 86.0105 333.195 85.8304 333.452 85.7241C333.709 85.6178 333.991 85.59 334.264 85.6442C334.536 85.6984 334.786 85.8322 334.983 86.0286C335.179 86.2251 335.313 86.4754 335.367 86.7479C335.422 87.0204 335.394 87.3028 335.287 87.5595C335.181 87.8162 335.001 88.0356 334.77 88.1899C334.539 88.3443 334.267 88.4267 333.99 88.4267C333.617 88.4267 333.26 88.2787 332.996 88.0152C332.733 87.7518 332.585 87.3945 332.585 87.0219ZM326.966 87.0219C326.966 86.7441 327.048 86.4725 327.203 86.2415C327.357 86.0105 327.576 85.8304 327.833 85.7241C328.09 85.6178 328.372 85.59 328.645 85.6442C328.917 85.6984 329.167 85.8322 329.364 86.0286C329.56 86.2251 329.694 86.4754 329.748 86.7479C329.803 87.0204 329.775 87.3028 329.668 87.5595C329.562 87.8162 329.382 88.0356 329.151 88.1899C328.92 88.3443 328.648 88.4267 328.371 88.4267C327.998 88.4267 327.641 88.2787 327.377 88.0152C327.114 87.7518 326.966 87.3945 326.966 87.0219ZM321.347 87.0219C321.347 86.7441 321.429 86.4725 321.584 86.2415C321.738 86.0105 321.957 85.8304 322.214 85.7241C322.471 85.6178 322.753 85.59 323.026 85.6442C323.298 85.6984 323.548 85.8322 323.745 86.0286C323.941 86.2251 324.075 86.4754 324.129 86.7479C324.184 87.0204 324.156 87.3028 324.049 87.5595C323.943 87.8162 323.763 88.0356 323.532 88.1899C323.301 88.3443 323.029 88.4267 322.752 88.4267C322.379 88.4267 322.022 88.2787 321.758 88.0152C321.495 87.7518 321.347 87.3945 321.347 87.0219V87.0219Z" fill="#171717"/>
</g>
<rect x="35.25" y="129.632" width="99.5797" height="45.2216" rx="22.6108" fill="#5945FD"/>
<path d="M69.0125 157.743V146.954H72.3389C72.4488 146.954 72.6411 146.957 72.9158 146.962C73.1905 146.967 73.4527 146.987 73.7024 147.022C74.5365 147.132 75.2333 147.436 75.7927 147.936C76.3571 148.43 76.7816 149.06 77.0663 149.824C77.351 150.588 77.4933 151.43 77.4933 152.349C77.4933 153.268 77.351 154.109 77.0663 154.873C76.7816 155.637 76.3571 156.269 75.7927 156.769C75.2333 157.263 74.5365 157.565 73.7024 157.675C73.4527 157.705 73.188 157.725 72.9083 157.735C72.6336 157.74 72.4438 157.743 72.3389 157.743H69.0125ZM70.3835 156.469H72.3389C72.5287 156.469 72.741 156.464 72.9757 156.454C73.2105 156.439 73.4152 156.417 73.5901 156.387C74.1794 156.277 74.6564 156.03 75.021 155.645C75.3856 155.26 75.6528 154.781 75.8226 154.207C75.9925 153.632 76.0774 153.013 76.0774 152.349C76.0774 151.669 75.99 151.042 75.8152 150.468C75.6453 149.894 75.3781 149.417 75.0135 149.037C74.6489 148.658 74.1744 148.415 73.5901 148.31C73.4152 148.275 73.208 148.253 72.9682 148.243C72.7285 148.233 72.5187 148.228 72.3389 148.228H70.3835V156.469ZM81.5114 157.967C80.9071 157.967 80.4002 157.858 79.9906 157.638C79.586 157.413 79.2789 157.118 79.0691 156.754C78.8643 156.389 78.7619 155.99 78.7619 155.555C78.7619 155.131 78.8418 154.763 79.0017 154.454C79.1665 154.139 79.3962 153.879 79.6909 153.675C79.9856 153.465 80.3377 153.3 80.7473 153.18C81.1319 153.075 81.5614 152.985 82.0359 152.91C82.5154 152.83 82.9998 152.758 83.4893 152.693C83.9788 152.628 84.4358 152.566 84.8603 152.506L84.3808 152.783C84.3958 152.064 84.251 151.532 83.9463 151.187C83.6466 150.843 83.1272 150.67 82.388 150.67C81.8985 150.67 81.469 150.783 81.0994 151.007C80.7348 151.227 80.4776 151.587 80.3277 152.086L79.0616 151.704C79.2564 150.995 79.6335 150.438 80.1929 150.034C80.7523 149.629 81.489 149.427 82.403 149.427C83.1372 149.427 83.7665 149.559 84.2909 149.824C84.8204 150.083 85.2 150.478 85.4297 151.007C85.5446 151.257 85.617 151.529 85.647 151.824C85.6769 152.114 85.6919 152.418 85.6919 152.738V157.743H84.5082V155.802L84.7854 155.982C84.4807 156.636 84.0537 157.131 83.5043 157.465C82.9599 157.8 82.2956 157.967 81.5114 157.967ZM81.7137 156.851C82.1932 156.851 82.6078 156.766 82.9574 156.596C83.312 156.422 83.5967 156.194 83.8115 155.915C84.0262 155.63 84.1661 155.32 84.231 154.986C84.3059 154.736 84.3459 154.459 84.3509 154.154C84.3609 153.844 84.3659 153.607 84.3659 153.442L84.8304 153.645C84.3958 153.705 83.9688 153.762 83.5492 153.817C83.1297 153.872 82.7326 153.932 82.358 153.997C81.9834 154.057 81.6463 154.129 81.3466 154.214C81.1269 154.284 80.9196 154.374 80.7248 154.484C80.535 154.594 80.3802 154.736 80.2603 154.911C80.1454 155.081 80.088 155.293 80.088 155.548C80.088 155.767 80.1429 155.977 80.2528 156.177C80.3677 156.377 80.5425 156.539 80.7772 156.664C81.017 156.789 81.3291 156.851 81.7137 156.851ZM87.7897 148.22V146.842H89.1232V148.22H87.7897ZM87.7897 157.743V149.651H89.1232V157.743H87.7897ZM91.521 157.743V146.73H92.8545V157.743H91.521ZM96.2262 161.339L97.792 157.083L97.8145 158.342L94.2783 149.651H95.6793L98.4513 156.641H97.9718L100.572 149.651H101.928L97.5223 161.339H96.2262Z" fill="white"/>
<rect x="142.322" y="129.632" width="99.5797" height="45.2216" rx="22.6108" fill="#F6F7F9"/>
<path d="M170.226 157.743L167.102 146.954H168.496L170.893 155.488L173.283 146.962L174.684 146.954L177.082 155.488L179.471 146.954H180.872L177.748 157.743H176.415L173.987 149.284L171.56 157.743H170.226ZM184.763 157.967C183.969 157.967 183.275 157.793 182.68 157.443C182.091 157.088 181.631 156.596 181.302 155.967C180.972 155.333 180.807 154.594 180.807 153.749C180.807 152.865 180.97 152.101 181.294 151.457C181.619 150.808 182.071 150.308 182.65 149.959C183.235 149.604 183.919 149.427 184.703 149.427C185.517 149.427 186.209 149.614 186.778 149.989C187.353 150.363 187.782 150.898 188.067 151.592C188.357 152.286 188.481 153.113 188.441 154.072H187.093V153.592C187.078 152.598 186.876 151.857 186.486 151.367C186.097 150.873 185.517 150.625 184.748 150.625C183.924 150.625 183.297 150.89 182.868 151.42C182.438 151.949 182.223 152.708 182.223 153.697C182.223 154.651 182.438 155.39 182.868 155.915C183.297 156.439 183.909 156.701 184.703 156.701C185.237 156.701 185.702 156.579 186.097 156.334C186.491 156.089 186.801 155.737 187.026 155.278L188.307 155.72C187.992 156.434 187.517 156.988 186.883 157.383C186.254 157.773 185.547 157.967 184.763 157.967ZM181.774 154.072V153H187.752V154.072H181.774ZM193.616 157.967C192.822 157.967 192.127 157.793 191.533 157.443C190.944 157.088 190.484 156.596 190.154 155.967C189.825 155.333 189.66 154.594 189.66 153.749C189.66 152.865 189.822 152.101 190.147 151.457C190.472 150.808 190.924 150.308 191.503 149.959C192.087 149.604 192.772 149.427 193.556 149.427C194.37 149.427 195.062 149.614 195.631 149.989C196.205 150.363 196.635 150.898 196.92 151.592C197.209 152.286 197.334 153.113 197.294 154.072H195.946V153.592C195.931 152.598 195.728 151.857 195.339 151.367C194.949 150.873 194.37 150.625 193.601 150.625C192.777 150.625 192.15 150.89 191.72 151.42C191.291 151.949 191.076 152.708 191.076 153.697C191.076 154.651 191.291 155.39 191.72 155.915C192.15 156.439 192.762 156.701 193.556 156.701C194.09 156.701 194.555 156.579 194.949 156.334C195.344 156.089 195.653 155.737 195.878 155.278L197.159 155.72C196.845 156.434 196.37 156.988 195.736 157.383C195.107 157.773 194.4 157.967 193.616 157.967ZM190.626 154.072V153H196.605V154.072H190.626ZM198.955 157.743L198.962 146.954H200.311V153.547L203.705 149.651H205.435L201.862 153.697L205.855 157.743H203.989L200.311 153.847V157.743H198.955ZM206.75 157.743V146.73H208.084V157.743H206.75ZM211.456 161.339L213.021 157.083L213.044 158.342L209.508 149.651H210.909L213.681 156.641H213.201L215.801 149.651H217.157L212.752 161.339H211.456Z" fill="#595959"/>
<rect x="249.393" y="129.632" width="99.5797" height="45.2216" rx="22.6108" fill="#F6F7F9"/>
<path d="M271.362 157.743V146.954H272.576L276.651 155.548L280.704 146.954H281.933V157.735H280.667V149.884L277.003 157.743H276.292L272.628 149.884V157.743H271.362ZM287.48 157.967C286.676 157.967 285.982 157.785 285.397 157.421C284.818 157.056 284.371 156.551 284.056 155.907C283.742 155.263 283.584 154.524 283.584 153.69C283.584 152.84 283.744 152.096 284.064 151.457C284.383 150.818 284.835 150.321 285.42 149.966C286.004 149.606 286.691 149.427 287.48 149.427C288.289 149.427 288.986 149.609 289.57 149.974C290.155 150.333 290.602 150.835 290.911 151.479C291.226 152.119 291.383 152.855 291.383 153.69C291.383 154.534 291.226 155.278 290.911 155.922C290.597 156.561 290.147 157.063 289.563 157.428C288.978 157.788 288.284 157.967 287.48 157.967ZM287.48 156.701C288.319 156.701 288.943 156.422 289.353 155.862C289.763 155.303 289.967 154.579 289.967 153.69C289.967 152.776 289.76 152.049 289.345 151.509C288.931 150.965 288.309 150.693 287.48 150.693C286.916 150.693 286.451 150.82 286.087 151.075C285.722 151.33 285.45 151.682 285.27 152.131C285.09 152.581 285 153.1 285 153.69C285 154.599 285.21 155.328 285.63 155.877C286.049 156.427 286.666 156.701 287.48 156.701ZM298.794 157.743V153.69C298.794 153.305 298.759 152.935 298.689 152.581C298.624 152.226 298.507 151.909 298.337 151.629C298.172 151.345 297.947 151.12 297.663 150.955C297.383 150.79 297.028 150.708 296.599 150.708C296.264 150.708 295.96 150.765 295.685 150.88C295.415 150.99 295.183 151.16 294.988 151.39C294.793 151.619 294.641 151.909 294.531 152.259C294.426 152.603 294.374 153.01 294.374 153.48L293.497 153.21C293.497 152.426 293.637 151.754 293.917 151.195C294.202 150.63 294.599 150.198 295.108 149.899C295.622 149.594 296.227 149.442 296.921 149.442C297.446 149.442 297.893 149.524 298.262 149.689C298.632 149.854 298.939 150.073 299.184 150.348C299.428 150.618 299.621 150.923 299.76 151.262C299.9 151.597 299.998 151.939 300.053 152.289C300.113 152.633 300.143 152.96 300.143 153.27V157.743H298.794ZM293.025 157.743V149.651H294.224V151.817H294.374V157.743H293.025ZM306.608 157.743C306.128 157.838 305.654 157.875 305.185 157.855C304.72 157.84 304.305 157.748 303.941 157.578C303.576 157.403 303.299 157.133 303.109 156.769C302.949 156.449 302.862 156.127 302.847 155.802C302.837 155.473 302.832 155.101 302.832 154.686V147.404H304.166V154.626C304.166 154.956 304.168 155.238 304.173 155.473C304.183 155.707 304.236 155.91 304.33 156.079C304.51 156.399 304.795 156.586 305.185 156.641C305.579 156.696 306.054 156.681 306.608 156.596V157.743ZM301.191 150.753V149.651H306.608V150.753H301.191ZM314.012 157.743V153.69C314.012 153.305 313.977 152.935 313.907 152.581C313.842 152.226 313.725 151.909 313.555 151.629C313.39 151.345 313.165 151.12 312.881 150.955C312.601 150.79 312.246 150.708 311.817 150.708C311.482 150.708 311.178 150.765 310.903 150.88C310.633 150.99 310.401 151.16 310.206 151.39C310.011 151.619 309.859 151.909 309.749 152.259C309.644 152.603 309.592 153.01 309.592 153.48L308.715 153.21C308.715 152.426 308.855 151.754 309.135 151.195C309.419 150.63 309.816 150.198 310.326 149.899C310.84 149.594 311.445 149.442 312.139 149.442C312.663 149.442 313.11 149.524 313.48 149.689C313.85 149.854 314.157 150.073 314.402 150.348C314.646 150.618 314.839 150.923 314.978 151.262C315.118 151.597 315.216 151.939 315.271 152.289C315.331 152.633 315.36 152.96 315.36 153.27V157.743H314.012ZM308.243 157.743V146.954H309.442V152.91H309.592V157.743H308.243ZM317.458 157.743V146.73H318.792V157.743H317.458ZM322.163 161.339L323.729 157.083L323.752 158.342L320.215 149.651H321.616L324.388 156.641H323.909L326.509 149.651H327.865L323.459 161.339H322.163Z" fill="#595959"/>
<rect x="35.25" y="189.837" width="313.723" height="248.249" rx="22.4757" fill="#F6F7F9"/>
<rect x="50.2338" y="212.313" width="48.6973" height="183.551" rx="11.2378" fill="#D2D2D2"/>
<rect x="108.998" y="274.12" width="48.6975" height="121.744" rx="11.2378" fill="#D2D2D2"/>
<rect x="167.763" y="253.518" width="48.6975" height="142.347" rx="11.2378" fill="#5945FD"/>
<rect x="226.527" y="287.231" width="48.6975" height="108.633" rx="11.2378" fill="#E6E6E6"/>
<rect x="285.292" y="229.169" width="48.6975" height="166.695" rx="11.2378" fill="#E6E6E6"/>
<rect x="148.564" y="199.202" width="88.0297" height="41.4757" rx="11.2378" fill="#5945FD"/>
<path d="M164.295 226.802V213.181H165.168V226.802H164.295ZM167.025 217.405C166.968 216.902 166.734 216.512 166.322 216.235C165.911 215.955 165.393 215.814 164.768 215.814C164.321 215.814 163.935 215.885 163.608 216.027C163.282 216.166 163.028 216.357 162.848 216.602C162.67 216.843 162.582 217.118 162.582 217.427C162.582 217.686 162.642 217.909 162.762 218.097C162.887 218.285 163.048 218.443 163.247 218.571C163.449 218.695 163.665 218.8 163.896 218.885C164.126 218.966 164.348 219.034 164.561 219.087L165.625 219.364C165.973 219.449 166.329 219.564 166.695 219.709C167.06 219.855 167.399 220.046 167.711 220.284C168.023 220.522 168.275 220.816 168.466 221.167C168.662 221.519 168.759 221.939 168.759 222.428C168.759 223.046 168.6 223.594 168.28 224.073C167.965 224.551 167.505 224.929 166.902 225.206C166.303 225.483 165.577 225.621 164.726 225.621C163.91 225.621 163.204 225.491 162.608 225.233C162.012 224.974 161.546 224.606 161.209 224.131C160.872 223.652 160.686 223.085 160.65 222.428H162.3C162.331 222.822 162.459 223.15 162.683 223.413C162.91 223.672 163.199 223.865 163.55 223.993C163.905 224.117 164.293 224.179 164.715 224.179C165.18 224.179 165.593 224.106 165.955 223.961C166.32 223.812 166.608 223.606 166.817 223.344C167.026 223.078 167.131 222.767 167.131 222.412C167.131 222.09 167.039 221.825 166.854 221.62C166.673 221.414 166.427 221.244 166.115 221.109C165.806 220.974 165.457 220.855 165.066 220.752L163.779 220.401C162.906 220.163 162.214 219.814 161.704 219.353C161.196 218.892 160.943 218.282 160.943 217.522C160.943 216.895 161.113 216.347 161.453 215.878C161.794 215.41 162.255 215.046 162.837 214.788C163.419 214.525 164.075 214.394 164.806 214.394C165.544 214.394 166.194 214.523 166.758 214.782C167.326 215.041 167.773 215.398 168.099 215.852C168.426 216.302 168.596 216.82 168.61 217.405H167.025ZM174.369 225.589C173.638 225.589 172.985 225.463 172.411 225.211C171.84 224.959 171.387 224.61 171.054 224.163C170.724 223.713 170.547 223.191 170.522 222.599H172.192C172.214 222.921 172.322 223.202 172.517 223.439C172.716 223.674 172.975 223.854 173.294 223.982C173.613 224.11 173.968 224.174 174.358 224.174C174.787 224.174 175.167 224.099 175.497 223.95C175.83 223.801 176.091 223.594 176.279 223.328C176.467 223.058 176.561 222.748 176.561 222.396C176.561 222.031 176.467 221.71 176.279 221.433C176.095 221.153 175.823 220.933 175.465 220.774C175.11 220.614 174.681 220.534 174.177 220.534H173.257V219.193H174.177C174.582 219.193 174.936 219.121 175.241 218.975C175.55 218.83 175.791 218.627 175.965 218.369C176.139 218.106 176.226 217.799 176.226 217.448C176.226 217.111 176.149 216.818 175.997 216.57C175.848 216.318 175.635 216.121 175.358 215.979C175.085 215.838 174.763 215.767 174.39 215.767C174.035 215.767 173.704 215.832 173.395 215.963C173.09 216.091 172.842 216.276 172.65 216.517C172.459 216.755 172.356 217.04 172.341 217.374H170.751C170.768 216.785 170.942 216.267 171.272 215.82C171.605 215.373 172.045 215.023 172.592 214.772C173.138 214.52 173.744 214.394 174.411 214.394C175.11 214.394 175.713 214.53 176.22 214.803C176.731 215.073 177.125 215.433 177.402 215.884C177.682 216.334 177.82 216.827 177.817 217.363C177.82 217.973 177.65 218.491 177.306 218.917C176.965 219.342 176.511 219.628 175.944 219.773V219.858C176.667 219.968 177.228 220.256 177.625 220.72C178.026 221.185 178.225 221.762 178.221 222.45C178.225 223.049 178.058 223.587 177.721 224.062C177.388 224.537 176.932 224.912 176.353 225.185C175.775 225.454 175.114 225.589 174.369 225.589ZM182.002 223.95L181.922 224.53C181.869 224.956 181.778 225.399 181.65 225.86C181.526 226.325 181.397 226.756 181.262 227.153C181.131 227.551 181.023 227.866 180.937 228.101H179.809C179.856 227.881 179.919 227.583 180.001 227.207C180.083 226.834 180.162 226.417 180.24 225.956C180.318 225.495 180.377 225.025 180.416 224.546L180.469 223.95H182.002ZM184.227 225.44V224.248L187.915 220.428C188.308 220.013 188.633 219.649 188.888 219.337C189.147 219.021 189.341 218.721 189.468 218.438C189.596 218.154 189.66 217.852 189.66 217.533C189.66 217.171 189.575 216.859 189.404 216.597C189.234 216.331 189.002 216.127 188.707 215.985C188.413 215.839 188.081 215.767 187.712 215.767C187.322 215.767 186.982 215.846 186.691 216.006C186.4 216.166 186.176 216.391 186.02 216.682C185.864 216.973 185.786 217.313 185.786 217.703H184.216C184.216 217.04 184.369 216.46 184.674 215.963C184.979 215.467 185.398 215.082 185.93 214.809C186.462 214.532 187.067 214.394 187.744 214.394C188.429 214.394 189.032 214.53 189.553 214.803C190.078 215.073 190.488 215.442 190.783 215.91C191.077 216.375 191.224 216.9 191.224 217.485C191.224 217.89 191.148 218.285 190.995 218.672C190.846 219.058 190.586 219.489 190.213 219.965C189.841 220.437 189.323 221.009 188.659 221.683L186.494 223.95V224.03H191.4V225.44H184.227ZM192.953 223.312V221.981L197.663 214.543H198.711V216.501H198.046L194.677 221.832V221.918H201.132V223.312H192.953ZM198.12 225.44V222.907L198.131 222.301V214.543H199.69V225.44H198.12ZM203.646 225.541C203.355 225.541 203.105 225.438 202.896 225.233C202.686 225.023 202.582 224.771 202.582 224.477C202.582 224.186 202.686 223.938 202.896 223.732C203.105 223.523 203.355 223.418 203.646 223.418C203.937 223.418 204.187 223.523 204.396 223.732C204.605 223.938 204.71 224.186 204.71 224.477C204.71 224.672 204.66 224.851 204.561 225.014C204.465 225.174 204.338 225.302 204.178 225.397C204.018 225.493 203.841 225.541 203.646 225.541ZM210.219 225.621C209.378 225.617 208.66 225.396 208.064 224.956C207.468 224.516 207.012 223.876 206.696 223.035C206.38 222.194 206.223 221.182 206.223 219.997C206.223 218.815 206.38 217.806 206.696 216.969C207.015 216.132 207.473 215.493 208.069 215.054C208.668 214.614 209.385 214.394 210.219 214.394C211.052 214.394 211.767 214.615 212.363 215.059C212.959 215.499 213.415 216.137 213.73 216.974C214.05 217.808 214.209 218.815 214.209 219.997C214.209 221.185 214.051 222.2 213.736 223.04C213.42 223.877 212.964 224.518 212.368 224.961C211.772 225.401 211.056 225.621 210.219 225.621ZM210.219 224.2C210.956 224.2 211.533 223.84 211.948 223.12C212.367 222.4 212.576 221.359 212.576 219.997C212.576 219.092 212.48 218.328 212.288 217.703C212.1 217.076 211.829 216.6 211.474 216.277C211.123 215.951 210.705 215.788 210.219 215.788C209.484 215.788 208.908 216.15 208.489 216.873C208.071 217.597 207.86 218.638 207.856 219.997C207.856 220.905 207.95 221.673 208.138 222.301C208.33 222.925 208.601 223.399 208.952 223.721C209.303 224.041 209.726 224.2 210.219 224.2ZM219.891 225.621C219.05 225.617 218.332 225.396 217.736 224.956C217.14 224.516 216.684 223.876 216.368 223.035C216.053 222.194 215.895 221.182 215.895 219.997C215.895 218.815 216.053 217.806 216.368 216.969C216.688 216.132 217.145 215.493 217.741 215.054C218.341 214.614 219.057 214.394 219.891 214.394C220.724 214.394 221.439 214.615 222.035 215.059C222.631 215.499 223.087 216.137 223.403 216.974C223.722 217.808 223.881 218.815 223.881 219.997C223.881 221.185 223.724 222.2 223.408 223.04C223.092 223.877 222.636 224.518 222.04 224.961C221.444 225.401 220.728 225.621 219.891 225.621ZM219.891 224.2C220.629 224.2 221.205 223.84 221.62 223.12C222.039 222.4 222.248 221.359 222.248 219.997C222.248 219.092 222.152 218.328 221.961 217.703C221.773 217.076 221.501 216.6 221.147 216.277C220.795 215.951 220.377 215.788 219.891 215.788C219.156 215.788 218.58 216.15 218.161 216.873C217.743 217.597 217.532 218.638 217.528 219.997C217.528 220.905 217.622 221.673 217.81 222.301C218.002 222.925 218.273 223.399 218.624 223.721C218.976 224.041 219.398 224.2 219.891 224.2Z" fill="white"/>
<path d="M192.581 247.9L186.904 238.066L198.258 238.066L192.581 247.9Z" fill="#5945FD"/>
<path d="M321.825 37.1808C321.825 35.8601 322.895 34.7895 324.216 34.7895H336.049C337.37 34.7895 338.44 35.8601 338.44 37.1808V41.1299C338.44 42.4506 337.37 43.5213 336.049 43.5213H324.216C322.895 43.5213 321.825 42.4506 321.825 41.1299V37.1808Z" stroke="black" stroke-opacity="0.4" stroke-width="0.845016"/>
<path d="M339.714 37.4653V40.8454C340.394 40.5591 340.836 39.8932 340.836 39.1554C340.836 38.4176 340.394 37.7516 339.714 37.4653Z" fill="black" fill-opacity="0.4"/>
<rect x="323.092" y="36.0569" width="14.078" height="6.19679" rx="1.12669" fill="black"/>
<path fill-rule="evenodd" clip-rule="evenodd" d="M310.397 36.2828C312.27 36.2829 314.07 37.0023 315.427 38.2925C315.53 38.3921 315.693 38.3909 315.794 38.2897L316.771 37.3038C316.821 37.2525 316.85 37.183 316.849 37.1107C316.849 37.0384 316.82 36.9692 316.768 36.9185C313.206 33.505 307.587 33.505 304.025 36.9185C303.974 36.9692 303.945 37.0383 303.944 37.1106C303.944 37.183 303.972 37.2525 304.023 37.3038L305 38.2897C305.101 38.391 305.264 38.3923 305.366 38.2925C306.723 37.0023 308.524 36.2828 310.397 36.2828ZM310.397 39.4901C311.426 39.49 312.418 39.8724 313.181 40.563C313.284 40.661 313.446 40.6589 313.547 40.5582L314.522 39.5723C314.574 39.5206 314.602 39.4505 314.602 39.3776C314.601 39.3047 314.571 39.2351 314.519 39.1845C312.196 37.0243 308.6 37.0243 306.278 39.1845C306.225 39.2351 306.195 39.3047 306.195 39.3777C306.194 39.4506 306.223 39.5207 306.274 39.5723L307.249 40.5582C307.35 40.6589 307.512 40.661 307.616 40.563C308.378 39.8729 309.369 39.4905 310.397 39.4901ZM312.352 41.6481C312.353 41.7212 312.324 41.7917 312.272 41.8429L310.584 43.5462C310.535 43.5962 310.467 43.6244 310.397 43.6244C310.327 43.6244 310.259 43.5962 310.21 43.5462L308.522 41.8429C308.47 41.7917 308.441 41.7212 308.442 41.6481C308.444 41.575 308.476 41.5057 308.53 41.4567C309.608 40.5451 311.186 40.5451 312.264 41.4567C312.319 41.5058 312.35 41.575 312.352 41.6481Z" fill="black"/>
<path fill-rule="evenodd" clip-rule="evenodd" d="M298.587 34.6458H297.742C297.275 34.6458 296.897 35.0241 296.897 35.4908V42.8142C296.897 43.2809 297.275 43.6593 297.742 43.6593H298.587C299.053 43.6593 299.432 43.2809 299.432 42.8142V35.4908C299.432 35.0241 299.053 34.6458 298.587 34.6458ZM293.798 36.6174H294.643C295.11 36.6174 295.488 36.9957 295.488 37.4624V42.8142C295.488 43.2809 295.11 43.6592 294.643 43.6592H293.798C293.332 43.6592 292.953 43.2809 292.953 42.8142V37.4624C292.953 36.9957 293.332 36.6174 293.798 36.6174ZM290.7 38.5892H289.855C289.388 38.5892 289.01 38.9676 289.01 39.4342V42.8143C289.01 43.281 289.388 43.6593 289.855 43.6593H290.7C291.167 43.6593 291.545 43.281 291.545 42.8143V39.4342C291.545 38.9676 291.167 38.5892 290.7 38.5892ZM286.756 40.2793H285.911C285.445 40.2793 285.066 40.6576 285.066 41.1243V42.8143C285.066 43.281 285.445 43.6593 285.911 43.6593H286.756C287.223 43.6593 287.601 43.281 287.601 42.8143V41.1243C287.601 40.6576 287.223 40.2793 286.756 40.2793Z" fill="black"/>
<path d="M60.5963 34.7458C62.5025 34.7458 64.1612 36.1012 64.1612 39.3195V39.3319C64.1612 42.3398 62.8058 44.1222 60.5591 44.1222C58.919 44.1222 57.6936 43.1505 57.4089 41.7827L57.3965 41.7147H58.9685L58.9871 41.7766C59.2223 42.4017 59.7731 42.8101 60.5591 42.8101C61.9764 42.8101 62.5768 41.4238 62.6448 39.7156C62.6448 39.6475 62.651 39.5794 62.651 39.5114H62.5273C62.1992 40.2169 61.4194 40.842 60.194 40.842C58.4796 40.842 57.2789 39.5918 57.2789 37.896V37.8836C57.2789 36.0702 58.6591 34.7458 60.5963 34.7458ZM60.5901 39.6166C61.5989 39.6166 62.3725 38.8863 62.3725 37.8774V37.8651C62.3725 36.8439 61.5989 36.0455 60.6086 36.0455C59.6246 36.0455 58.8386 36.8315 58.8386 37.8279V37.8403C58.8386 38.8739 59.5751 39.6166 60.5901 39.6166ZM66.7344 38.1126C66.1712 38.1126 65.7504 37.6794 65.7504 37.1347C65.7504 36.5839 66.1712 36.1569 66.7344 36.1569C67.3038 36.1569 67.7185 36.5839 67.7185 37.1347C67.7185 37.6794 67.3038 38.1126 66.7344 38.1126ZM66.7344 42.7049C66.1712 42.7049 65.7504 42.2779 65.7504 41.727C65.7504 41.1762 66.1712 40.7492 66.7344 40.7492C67.3038 40.7492 67.7185 41.1762 67.7185 41.727C67.7185 42.2779 67.3038 42.7049 66.7344 42.7049ZM73.64 43.8994V42.185H69.2705V40.8791C70.4279 38.8677 71.6966 36.8129 72.9097 34.9686H75.1687V40.8668H76.3694V42.185H75.1687V43.8994H73.64ZM70.7559 40.9039H73.6648V36.2435H73.5719C72.656 37.6422 71.6224 39.2947 70.7559 40.8111V40.9039ZM79.8339 43.8994V36.5406H79.7287L77.5068 38.1126V36.6087L79.8401 34.9686H81.4307V43.8994H79.8339Z" fill="black"/>
</g>
</g>
<rect x="136.512" y="27.8857" width="101.402" height="27.8855" rx="13.9428" fill="#030303"/>
<circle cx="221.437" cy="41.8285" r="8.87267" fill="#0E0B0F"/>
<circle cx="221.345" cy="41.7368" r="4.55591" fill="#161424"/>
<circle cx="221.345" cy="41.737" r="2.73354" fill="#0F0F2A"/>
<circle cx="221.345" cy="40.8257" r="0.911181" fill="#393752"/>
<circle cx="202.377" cy="41.5384" r="1.82236" fill="#30B94D"/>
<defs>
<filter id="filter0_f_1_114" x="0.465744" y="142.808" width="2.53505" height="3.3801" filterUnits="userSpaceOnUse" color-interpolation-filters="sRGB">
<feFlood flood-opacity="0" result="BackgroundImageFix"/>
<feBlend mode="normal" in="SourceGraphic" in2="BackgroundImageFix" result="shape"/>
<feGaussianBlur stdDeviation="0.422508" result="effect1_foregroundBlur_1_114"/>
</filter>
<filter id="filter1_f_1_114" x="0.465744" y="144.498" width="2.53505" height="23.6605" filterUnits="userSpaceOnUse" color-interpolation-filters="sRGB">
<feFlood flood-opacity="0" result="BackgroundImageFix"/>
<feBlend mode="normal" in="SourceGraphic" in2="BackgroundImageFix" result="shape"/>
<feGaussianBlur stdDeviation="0.422508" result="effect1_foregroundBlur_1_114"/>
</filter>
<filter id="filter2_f_1_114" x="0.465744" y="195.199" width="2.53505" height="3.3801" filterUnits="userSpaceOnUse" color-interpolation-filters="sRGB">
<feFlood flood-opacity="0" result="BackgroundImageFix"/>
<feBlend mode="normal" in="SourceGraphic" in2="BackgroundImageFix" result="shape"/>
<feGaussianBlur stdDeviation="0.422508" result="effect1_foregroundBlur_1_114"/>
</filter>
<filter id="filter3_f_1_114" x="0.465744" y="196.889" width="2.53505" height="50.701" filterUnits="userSpaceOnUse" color-interpolation-filters="sRGB">
<feFlood flood-opacity="0" result="BackgroundImageFix"/>
<feBlend mode="normal" in="SourceGraphic" in2="BackgroundImageFix" result="shape"/>
<feGaussianBlur stdDeviation="0.422508" result="effect1_foregroundBlur_1_114"/>
</filter>
<filter id="filter4_f_1_114" x="0.465744" y="262.8" width="2.53505" height="3.3801" filterUnits="userSpaceOnUse" color-interpolation-filters="sRGB">
<feFlood flood-opacity="0" result="BackgroundImageFix"/>
<feBlend mode="normal" in="SourceGraphic" in2="BackgroundImageFix" result="shape"/>
<feGaussianBlur stdDeviation="0.422508" result="effect1_foregroundBlur_1_114"/>
</filter>
<filter id="filter5_f_1_114" x="0.465744" y="264.49" width="2.53505" height="50.701" filterUnits="userSpaceOnUse" color-interpolation-filters="sRGB">
<feFlood flood-opacity="0" result="BackgroundImageFix"/>
<feBlend mode="normal" in="SourceGraphic" in2="BackgroundImageFix" result="shape"/>
<feGaussianBlur stdDeviation="0.422508" result="effect1_foregroundBlur_1_114"/>
</filter>
<filter id="filter6_f_1_114" x="380.722" y="213.789" width="2.53505" height="3.3801" filterUnits="userSpaceOnUse" color-interpolation-filters="sRGB">
<feFlood flood-opacity="0" result="BackgroundImageFix"/>
<feBlend mode="normal" in="SourceGraphic" in2="BackgroundImageFix" result="shape"/>
<feGaussianBlur stdDeviation="0.422508" result="effect1_foregroundBlur_1_114"/>
</filter>
<filter id="filter7_f_1_114" x="380.722" y="215.479" width="2.53505" height="80.2766" filterUnits="userSpaceOnUse" color-interpolation-filters="sRGB">
<feFlood flood-opacity="0" result="BackgroundImageFix"/>
<feBlend mode="normal" in="SourceGraphic" in2="BackgroundImageFix" result="shape"/>
<feGaussianBlur stdDeviation="0.422508" result="effect1_foregroundBlur_1_114"/>
</filter>
<filter id="filter8_f_1_114" x="-0.696821" y="-3.69682" width="385.394" height="786.499" filterUnits="userSpaceOnUse" color-interpolation-filters="sRGB">
<feFlood flood-opacity="0" result="BackgroundImageFix"/>
<feBlend mode="normal" in="SourceGraphic" in2="BackgroundImageFix" result="shape"/>
<feGaussianBlur stdDeviation="1.84841" result="effect1_foregroundBlur_1_114"/>
</filter>
<filter id="filter9_f_1_114" x="1.15159" y="-1.84841" width="381.697" height="782.802" filterUnits="userSpaceOnUse" color-interpolation-filters="sRGB">
<feFlood flood-opacity="0" result="BackgroundImageFix"/>
<feBlend mode="normal" in="SourceGraphic" in2="BackgroundImageFix" result="shape"/>
<feGaussianBlur stdDeviation="0.924205" result="effect1_foregroundBlur_1_114"/>
</filter>
<filter id="filter10_f_1_114" x="6.22169" y="3.22166" width="372.124" height="772.662" filterUnits="userSpaceOnUse" color-interpolation-filters="sRGB">
<feFlood flood-opacity="0" result="BackgroundImageFix"/>
<feBlend mode="normal" in="SourceGraphic" in2="BackgroundImageFix" result="shape"/>
<feGaussianBlur stdDeviation="0.924205" result="effect1_foregroundBlur_1_114"/>
</filter>
<filter id="filter11_f_1_114" x="2.44658" y="-0.554399" width="379.848" height="780.029" filterUnits="userSpaceOnUse" color-interpolation-filters="sRGB">
<feFlood flood-opacity="0" result="BackgroundImageFix"/>
<feBlend mode="normal" in="SourceGraphic" in2="BackgroundImageFix" result="shape"/>
<feGaussianBlur stdDeviation="3.23472" result="effect1_foregroundBlur_1_114"/>
</filter>
<linearGradient id="paint0_linear_1_114" x1="2.57771" y1="142.807" x2="2.57771" y2="145.565" gradientUnits="userSpaceOnUse">
<stop/>
<stop offset="1" stop-opacity="0"/>
</linearGradient>
<linearGradient id="paint1_linear_1_114" x1="4.69025" y1="142.807" x2="1.73269" y2="142.807" gradientUnits="userSpaceOnUse">
<stop/>
<stop offset="1" stop-color="#AEAEAE" stop-opacity="0"/>
</linearGradient>
<linearGradient id="paint2_linear_1_114" x1="2.57771" y1="164.522" x2="2.57771" y2="169.003" gradientUnits="userSpaceOnUse">
<stop stop-opacity="0"/>
<stop offset="1"/>
</linearGradient>
<linearGradient id="paint3_linear_1_114" x1="2.57771" y1="194.354" x2="2.57771" y2="197.734" gradientUnits="userSpaceOnUse">
<stop/>
<stop offset="1" stop-opacity="0"/>
</linearGradient>
<linearGradient id="paint4_linear_1_114" x1="4.69025" y1="194.354" x2="1.73269" y2="194.354" gradientUnits="userSpaceOnUse">
<stop/>
<stop offset="1" stop-color="#AEAEAE" stop-opacity="0"/>
</linearGradient>
<linearGradient id="paint5_linear_1_114" x1="2.57771" y1="243.787" x2="2.57771" y2="248.435" gradientUnits="userSpaceOnUse">
<stop stop-opacity="0"/>
<stop offset="1"/>
</linearGradient>
<linearGradient id="paint6_linear_1_114" x1="2.57771" y1="261.955" x2="2.57771" y2="265.335" gradientUnits="userSpaceOnUse">
<stop/>
<stop offset="1" stop-opacity="0"/>
</linearGradient>
<linearGradient id="paint7_linear_1_114" x1="4.69025" y1="261.955" x2="1.73269" y2="261.955" gradientUnits="userSpaceOnUse">
<stop/>
<stop offset="1" stop-color="#AEAEAE" stop-opacity="0"/>
</linearGradient>
<linearGradient id="paint8_linear_1_114" x1="2.57771" y1="311.388" x2="2.57771" y2="316.036" gradientUnits="userSpaceOnUse">
<stop stop-opacity="0"/>
<stop offset="1"/>
</linearGradient>
<linearGradient id="paint9_linear_1_114" x1="381.145" y1="212.944" x2="381.145" y2="216.324" gradientUnits="userSpaceOnUse">
<stop/>
<stop offset="1" stop-opacity="0"/>
</linearGradient>
<linearGradient id="paint10_linear_1_114" x1="379.033" y1="212.944" x2="381.99" y2="212.944" gradientUnits="userSpaceOnUse">
<stop/>
<stop offset="1" stop-color="#AEAEAE" stop-opacity="0"/>
</linearGradient>
<linearGradient id="paint11_linear_1_114" x1="381.145" y1="292.798" x2="381.145" y2="296.601" gradientUnits="userSpaceOnUse">
<stop stop-opacity="0"/>
<stop offset="1"/>
</linearGradient>
<radialGradient id="paint12_radial_1_114" cx="0" cy="0" r="1" gradientUnits="userSpaceOnUse" gradientTransform="translate(192.833 182.9) rotate(90) scale(314.23 350.57)">
<stop stop-color="#879194"/>
<stop offset="1"/>
</radialGradient>
<clipPath id="clip0_1_114">
<rect x="3" width="378" height="779.105" rx="63.3762" fill="white"/>
</clipPath>
<clipPath id="clip1_1_114">
<rect x="8.91602" y="5.91504" width="366.91" height="767.09" rx="57.4611" fill="white"/>
</clipPath>
<clipPath id="clip2_1_114">
<rect x="17.3653" y="14.3652" width="349.837" height="750.375" rx="49.856" fill="white"/>
</clipPath>
<clipPath id="clip3_1_114">
<rect width="351.182" height="760.427" fill="white" transform="translate(16.5196 9.76147)"/>
</clipPath>
<clipPath id="clip4_1_114">
<rect width="22.476" height="22.476" fill="white" transform="translate(317.132 75.3157)"/>
</clipPath>
</defs>
</svg>
