<svg width="238" height="235" viewBox="0 0 238 235" fill="none" xmlns="http://www.w3.org/2000/svg">
<path d="M0.426575 89.6817C0.426575 89.1024 0.896186 88.6328 1.47548 88.6328H3.04884V104.891H1.47548C0.896186 104.891 0.426575 104.421 0.426575 103.842V89.6817Z" fill="#75706D"/>
<path opacity="0.4" d="M0.426575 89.6817C0.426575 89.1024 0.896186 88.6328 1.47548 88.6328H3.04884V104.891H1.47548C0.896186 104.891 0.426575 104.421 0.426575 103.842V89.6817Z" fill="url(#paint0_linear_6_5676)"/>
<path opacity="0.4" d="M0.426575 89.6817C0.426575 89.1024 0.896186 88.6328 1.47548 88.6328H3.04884V104.891H1.47548C0.896186 104.891 0.426575 104.421 0.426575 103.842V89.6817Z" fill="url(#paint1_linear_6_5676)"/>
<path opacity="0.4" d="M0.426575 89.6817C0.426575 89.1024 0.896186 88.6328 1.47548 88.6328H3.04884V104.891H1.47548C0.896186 104.891 0.426575 104.421 0.426575 103.842V89.6817Z" fill="url(#paint2_linear_6_5676)"/>
<g filter="url(#filter0_f_6_5676)">
<path d="M0.951599 89.4195C0.951599 89.2746 1.069 89.1572 1.21383 89.1572C1.35865 89.1572 1.47605 89.2746 1.47605 89.4195V90.2061H0.951599V89.4195Z" fill="white"/>
</g>
<g filter="url(#filter1_f_6_5676)">
<path d="M0.951599 90.2061H1.47605V103.58C1.47605 103.724 1.35865 103.842 1.21383 103.842C1.069 103.842 0.951599 103.724 0.951599 103.58V90.2061Z" fill="white" fill-opacity="0.8"/>
</g>
<path d="M0.426636 121.673C0.426636 121.094 0.896247 120.624 1.47554 120.624H3.0489V154.189H1.47554C0.896247 154.189 0.426636 153.719 0.426636 153.14V121.673Z" fill="#75706D"/>
<path opacity="0.4" d="M0.426636 121.673C0.426636 121.094 0.896247 120.624 1.47554 120.624H3.0489V154.189H1.47554C0.896247 154.189 0.426636 153.719 0.426636 153.14V121.673Z" fill="url(#paint3_linear_6_5676)"/>
<path opacity="0.4" d="M0.426636 121.673C0.426636 121.094 0.896247 120.624 1.47554 120.624H3.0489V154.189H1.47554C0.896247 154.189 0.426636 153.719 0.426636 153.14V121.673Z" fill="url(#paint4_linear_6_5676)"/>
<path opacity="0.4" d="M0.426636 121.673C0.426636 121.094 0.896247 120.624 1.47554 120.624H3.0489V154.189H1.47554C0.896247 154.189 0.426636 153.719 0.426636 153.14V121.673Z" fill="url(#paint5_linear_6_5676)"/>
<g filter="url(#filter2_f_6_5676)">
<path d="M0.951599 121.935C0.951599 121.79 1.069 121.673 1.21383 121.673C1.35865 121.673 1.47605 121.79 1.47605 121.935V122.722H0.951599V121.935Z" fill="white"/>
</g>
<g filter="url(#filter3_f_6_5676)">
<path d="M0.951599 122.722H1.47605V152.878C1.47605 153.023 1.35865 153.14 1.21383 153.14C1.069 153.14 0.951599 153.023 0.951599 152.878V122.722Z" fill="white" fill-opacity="0.8"/>
</g>
<path d="M0.426636 163.629C0.426636 163.05 0.896247 162.58 1.47554 162.58H3.0489V196.145H1.47554C0.896247 196.145 0.426636 195.676 0.426636 195.096V163.629Z" fill="#75706D"/>
<path opacity="0.4" d="M0.426636 163.629C0.426636 163.05 0.896247 162.58 1.47554 162.58H3.0489V196.145H1.47554C0.896247 196.145 0.426636 195.676 0.426636 195.096V163.629Z" fill="url(#paint6_linear_6_5676)"/>
<path opacity="0.4" d="M0.426636 163.629C0.426636 163.05 0.896247 162.58 1.47554 162.58H3.0489V196.145H1.47554C0.896247 196.145 0.426636 195.676 0.426636 195.096V163.629Z" fill="url(#paint7_linear_6_5676)"/>
<path opacity="0.4" d="M0.426636 163.629C0.426636 163.05 0.896247 162.58 1.47554 162.58H3.0489V196.145H1.47554C0.896247 196.145 0.426636 195.676 0.426636 195.096V163.629Z" fill="url(#paint8_linear_6_5676)"/>
<g filter="url(#filter4_f_6_5676)">
<path d="M0.951599 163.891C0.951599 163.747 1.069 163.629 1.21383 163.629C1.35865 163.629 1.47605 163.747 1.47605 163.891V164.678H0.951599V163.891Z" fill="white"/>
</g>
<g filter="url(#filter5_f_6_5676)">
<path d="M0.951599 164.678H1.47605V194.834C1.47605 194.979 1.35865 195.096 1.21383 195.096C1.069 195.096 0.951599 194.979 0.951599 194.834V164.678Z" fill="white" fill-opacity="0.8"/>
</g>
<path d="M238.004 133.211C238.004 132.631 237.534 132.162 236.955 132.162H235.382V184.083H236.955C237.534 184.083 238.004 183.613 238.004 183.034V133.211Z" fill="#75706D"/>
<path opacity="0.4" d="M238.004 133.211C238.004 132.631 237.534 132.162 236.955 132.162H235.382V184.083H236.955C237.534 184.083 238.004 183.613 238.004 183.034V133.211Z" fill="url(#paint9_linear_6_5676)"/>
<path opacity="0.4" d="M238.004 133.211C238.004 132.631 237.534 132.162 236.955 132.162H235.382V184.083H236.955C237.534 184.083 238.004 183.613 238.004 183.034V133.211Z" fill="url(#paint10_linear_6_5676)"/>
<path opacity="0.4" d="M238.004 133.211C238.004 132.631 237.534 132.162 236.955 132.162H235.382V184.083H236.955C237.534 184.083 238.004 183.613 238.004 183.034V133.211Z" fill="url(#paint11_linear_6_5676)"/>
<g filter="url(#filter6_f_6_5676)">
<path d="M237.479 133.473C237.479 133.328 237.362 133.211 237.217 133.211C237.072 133.211 236.955 133.328 236.955 133.473V134.26H237.479V133.473Z" fill="white"/>
</g>
<g filter="url(#filter7_f_6_5676)">
<path d="M237.479 134.26H236.955V182.771C236.955 182.916 237.072 183.034 237.217 183.034C237.362 183.034 237.479 182.916 237.479 182.771V134.26Z" fill="white" fill-opacity="0.8"/>
</g>
<g clip-path="url(#clip0_6_5676)">
<rect x="2" width="234.603" height="483.545" rx="39.334" fill="#C7C4BF"/>
<g filter="url(#filter8_f_6_5676)">
<rect x="2.8604" y="0.860401" width="232.882" height="481.824" rx="38.4735" stroke="#4D4946" stroke-width="1.7208"/>
</g>
<g filter="url(#filter9_f_6_5676)">
<rect x="2.2868" y="0.2868" width="234.029" height="482.972" rx="39.0471" stroke="#4A4643" stroke-width="0.573601"/>
</g>
<g filter="url(#filter10_f_6_5676)">
<rect x="5.43353" y="3.43377" width="228.088" height="476.678" rx="35.9004" stroke="#D9D6D1" stroke-width="0.573601"/>
</g>
<rect x="5.55703" y="3.55667" width="227.842" height="476.432" rx="35.7775" stroke="#F3F0EB" stroke-width="0.22944"/>
</g>
<g clip-path="url(#clip1_6_5676)">
<rect x="5.67175" y="3.67139" width="227.719" height="476.088" rx="35.6628" fill="#000100"/>
<g filter="url(#filter11_f_6_5676)">
<rect x="6.81895" y="4.81859" width="225.425" height="473.794" rx="34.5156" stroke="url(#paint12_radial_6_5676)" stroke-width="2.2944"/>
</g>
</g>
<g clip-path="url(#clip2_6_5676)">
<rect x="10.9157" y="8.91577" width="217.123" height="465.714" rx="30.9427" fill="#DAE2D3"/>
<g clip-path="url(#clip3_6_5676)">
<rect width="217.958" height="471.953" transform="translate(10.3908 6.05859)" fill="white"/>
<rect x="22.0157" y="40.9319" width="25.5742" height="25.5742" rx="12.7871" fill="#F6F7F9"/>
<path fill-rule="evenodd" clip-rule="evenodd" d="M32.6492 54.13C32.4222 53.903 32.4222 53.535 32.6492 53.308L35.9371 50.0201C36.1641 49.7931 36.5321 49.7931 36.7591 50.0201C36.9861 50.247 36.9861 50.6151 36.7591 50.842L33.8821 53.719L36.7591 56.5959C36.9861 56.8229 36.9861 57.1909 36.7591 57.4179C36.5321 57.6449 36.1641 57.6449 35.9371 57.4179L32.6492 54.13Z" fill="#171717"/>
<path d="M99.0014 58.3759C98.4678 58.3759 97.9865 58.2853 97.5576 58.1039C97.1321 57.9226 96.7799 57.6645 96.5009 57.3297C96.2254 56.9915 96.0458 56.5922 95.9621 56.1318L96.9247 55.9801C97.0467 56.4544 97.2995 56.8258 97.6831 57.0943C98.0702 57.3594 98.5253 57.4919 99.0484 57.4919C99.3867 57.4919 99.6919 57.4396 99.9639 57.335C100.239 57.2268 100.457 57.0734 100.618 56.8746C100.778 56.6758 100.858 56.4405 100.858 56.1684C100.858 56.001 100.829 55.8581 100.769 55.7395C100.714 55.6174 100.635 55.5146 100.534 55.4309C100.436 55.3437 100.325 55.2705 100.199 55.2112C100.074 55.1519 99.9429 55.1031 99.8069 55.0647L97.8872 54.4945C97.6779 54.4317 97.4757 54.3533 97.2804 54.2591C97.0851 54.1615 96.9107 54.0412 96.7573 53.8982C96.6038 53.7517 96.4818 53.5773 96.3911 53.3751C96.3004 53.1693 96.2551 52.927 96.2551 52.648C96.2551 52.2016 96.3702 51.8215 96.6003 51.5076C96.834 51.1903 97.1496 50.9479 97.5471 50.7805C97.9447 50.6131 98.3928 50.5312 98.8915 50.5346C99.3972 50.5381 99.8488 50.6288 100.246 50.8067C100.647 50.981 100.979 51.2321 101.24 51.5599C101.505 51.8877 101.683 52.2801 101.774 52.7369L100.785 52.9095C100.733 52.6026 100.616 52.3393 100.435 52.1196C100.257 51.8965 100.034 51.7256 99.7651 51.607C99.4966 51.4849 99.2019 51.4222 98.881 51.4187C98.5742 51.4152 98.2969 51.464 98.0493 51.5652C97.8017 51.6663 97.6047 51.8075 97.4582 51.9889C97.3117 52.1667 97.2385 52.3725 97.2385 52.6061C97.2385 52.8363 97.3048 53.0229 97.4373 53.1658C97.5698 53.3053 97.732 53.4169 97.9238 53.5006C98.1191 53.5808 98.3091 53.6471 98.494 53.6994L99.9272 54.1127C100.091 54.158 100.279 54.2208 100.492 54.301C100.708 54.3812 100.918 54.4945 101.12 54.641C101.322 54.784 101.49 54.9758 101.622 55.2164C101.755 55.4535 101.821 55.7534 101.821 56.1161C101.821 56.4788 101.748 56.8014 101.601 57.0839C101.458 57.3663 101.258 57.6035 101 57.7953C100.742 57.9836 100.442 58.1266 100.1 58.2242C99.7581 58.3254 99.3919 58.3759 99.0014 58.3759ZM106.072 58.219C105.738 58.2853 105.406 58.3114 105.079 58.2975C104.754 58.287 104.465 58.2225 104.21 58.1039C103.956 57.9819 103.762 57.7935 103.63 57.539C103.518 57.3158 103.457 57.0908 103.446 56.8642C103.44 56.634 103.436 56.3742 103.436 56.0847V51.0002H104.367V56.0429C104.367 56.2731 104.369 56.4701 104.372 56.634C104.379 56.7979 104.416 56.9391 104.482 57.0577C104.608 57.2809 104.807 57.4117 105.079 57.45C105.354 57.4884 105.685 57.4779 106.072 57.4187V58.219ZM102.29 53.3385V52.5695H106.072V53.3385H102.29ZM108.825 58.3759C108.403 58.3759 108.049 58.2992 107.763 58.1458C107.481 57.9888 107.267 57.7831 107.12 57.5285C106.977 57.2739 106.906 56.9949 106.906 56.6915C106.906 56.3951 106.961 56.1388 107.073 55.9226C107.188 55.7029 107.348 55.5215 107.554 55.3786C107.76 55.2321 108.006 55.117 108.292 55.0333C108.56 54.9601 108.86 54.8973 109.192 54.845C109.526 54.7892 109.865 54.7386 110.206 54.6933C110.548 54.648 110.867 54.6044 111.164 54.5625L110.829 54.7561C110.839 54.2539 110.738 53.8825 110.525 53.6419C110.316 53.4012 109.954 53.2809 109.437 53.2809C109.096 53.2809 108.796 53.3594 108.538 53.5163C108.283 53.6698 108.103 53.9209 107.999 54.2696L107.115 54.0028C107.251 53.5076 107.514 53.1188 107.905 52.8363C108.295 52.5538 108.81 52.4126 109.448 52.4126C109.96 52.4126 110.4 52.505 110.766 52.6898C111.136 52.8712 111.401 53.1467 111.561 53.5163C111.641 53.6907 111.692 53.8807 111.713 54.0865C111.734 54.2888 111.744 54.5015 111.744 54.7247V58.219H110.918V56.8642L111.111 56.9897C110.899 57.4465 110.6 57.7918 110.217 58.0254C109.837 58.2591 109.373 58.3759 108.825 58.3759ZM108.967 57.5965C109.301 57.5965 109.591 57.5372 109.835 57.4187C110.083 57.2966 110.281 57.1379 110.431 56.9426C110.581 56.7439 110.679 56.5276 110.724 56.294C110.777 56.1196 110.804 55.9261 110.808 55.7133C110.815 55.4971 110.818 55.3315 110.818 55.2164L111.143 55.3576C110.839 55.3995 110.541 55.4396 110.248 55.4779C109.955 55.5163 109.678 55.5582 109.416 55.6035C109.155 55.6453 108.92 55.6959 108.71 55.7552C108.557 55.804 108.412 55.8668 108.276 55.9435C108.144 56.0202 108.035 56.1196 107.952 56.2417C107.872 56.3602 107.831 56.5085 107.831 56.6863C107.831 56.8398 107.87 56.9862 107.947 57.1257C108.027 57.2652 108.149 57.3785 108.313 57.4657C108.48 57.5529 108.698 57.5965 108.967 57.5965ZM116.259 58.219C115.924 58.2853 115.593 58.3114 115.265 58.2975C114.94 58.287 114.651 58.2225 114.396 58.1039C114.142 57.9819 113.948 57.7935 113.816 57.539C113.704 57.3158 113.643 57.0908 113.633 56.8642C113.626 56.634 113.622 56.3742 113.622 56.0847V51.0002H114.553V56.0429C114.553 56.2731 114.555 56.4701 114.559 56.634C114.566 56.7979 114.602 56.9391 114.668 57.0577C114.794 57.2809 114.993 57.4117 115.265 57.45C115.54 57.4884 115.872 57.4779 116.259 57.4187V58.219ZM112.477 53.3385V52.5695H116.259V53.3385H112.477ZM117.51 51.5704V50.6079H118.441V51.5704H117.51ZM117.51 58.219V52.5695H118.441V58.219H117.51ZM122.145 58.3707C121.472 58.3707 120.919 58.2242 120.487 57.9313C120.058 57.6349 119.795 57.2216 119.697 56.6915L120.649 56.5398C120.726 56.8467 120.902 57.0908 121.177 57.2722C121.453 57.45 121.795 57.539 122.203 57.539C122.59 57.539 122.893 57.4588 123.113 57.2983C123.333 57.1379 123.442 56.92 123.442 56.6445C123.442 56.484 123.406 56.355 123.333 56.2574C123.259 56.1562 123.108 56.0621 122.877 55.9749C122.651 55.8877 122.307 55.7831 121.847 55.661C121.348 55.5285 120.956 55.3908 120.67 55.2478C120.384 55.1048 120.18 54.9392 120.058 54.7508C119.936 54.5625 119.875 54.3341 119.875 54.0656C119.875 53.7343 119.966 53.4448 120.147 53.1972C120.328 52.9461 120.581 52.7526 120.905 52.6166C121.233 52.4806 121.613 52.4126 122.046 52.4126C122.475 52.4126 122.858 52.4806 123.197 52.6166C123.535 52.7526 123.807 52.9461 124.013 53.1972C124.222 53.4448 124.346 53.7343 124.384 54.0656L123.432 54.2382C123.387 53.9348 123.24 53.6959 122.993 53.5216C122.748 53.3472 122.433 53.2548 122.046 53.2443C121.68 53.2304 121.381 53.2949 121.151 53.4379C120.925 53.5808 120.811 53.7744 120.811 54.0185C120.811 54.1545 120.853 54.2713 120.937 54.369C121.024 54.4666 121.183 54.559 121.413 54.6462C121.646 54.7334 121.985 54.8328 122.428 54.9444C122.926 55.0699 123.319 55.2077 123.605 55.3576C123.894 55.5041 124.1 55.6785 124.222 55.8807C124.344 56.0795 124.405 56.3254 124.405 56.6183C124.405 57.1623 124.204 57.5913 123.803 57.9051C123.402 58.2155 122.85 58.3707 122.145 58.3707ZM128.713 58.219C128.378 58.2853 128.047 58.3114 127.719 58.2975C127.395 58.287 127.105 58.2225 126.851 58.1039C126.596 57.9819 126.403 57.7935 126.27 57.539C126.158 57.3158 126.097 57.0908 126.087 56.8642C126.08 56.634 126.076 56.3742 126.076 56.0847V51.0002H127.008V56.0429C127.008 56.2731 127.009 56.4701 127.013 56.634C127.02 56.7979 127.056 56.9391 127.123 57.0577C127.248 57.2809 127.447 57.4117 127.719 57.45C127.995 57.4884 128.326 57.4779 128.713 57.4187V58.219ZM124.931 53.3385V52.5695H128.713V53.3385H124.931ZM129.964 51.5704V50.6079H130.896V51.5704H129.964ZM129.964 58.219V52.5695H130.896V58.219H129.964ZM134.845 58.3759C134.273 58.3759 133.787 58.2486 133.386 57.9941C132.988 57.736 132.685 57.382 132.476 56.9322C132.266 56.4823 132.158 55.9697 132.151 55.3943C132.158 54.8049 132.268 54.287 132.481 53.8406C132.697 53.3908 133.006 53.0403 133.407 52.7892C133.808 52.5381 134.291 52.4126 134.856 52.4126C135.452 52.4126 135.965 52.559 136.394 52.852C136.826 53.1449 137.116 53.546 137.262 54.0551L136.341 54.3324C136.223 54.0045 136.029 53.75 135.761 53.5686C135.496 53.3873 135.191 53.2966 134.845 53.2966C134.458 53.2966 134.139 53.3873 133.888 53.5686C133.637 53.7465 133.45 53.9941 133.328 54.3114C133.206 54.6253 133.143 54.9862 133.14 55.3943C133.147 56.022 133.292 56.5294 133.574 56.9165C133.86 57.3001 134.284 57.4919 134.845 57.4919C135.215 57.4919 135.522 57.4082 135.766 57.2408C136.01 57.0699 136.195 56.8241 136.32 56.5032L137.262 56.7491C137.067 57.2757 136.762 57.6785 136.347 57.9574C135.932 58.2364 135.431 58.3759 134.845 58.3759ZM140.464 58.3707C139.791 58.3707 139.238 58.2242 138.806 57.9313C138.377 57.6349 138.113 57.2216 138.016 56.6915L138.968 56.5398C139.045 56.8467 139.221 57.0908 139.496 57.2722C139.772 57.45 140.113 57.539 140.521 57.539C140.908 57.539 141.212 57.4588 141.432 57.2983C141.651 57.1379 141.761 56.92 141.761 56.6445C141.761 56.484 141.725 56.355 141.651 56.2574C141.578 56.1562 141.426 56.0621 141.196 55.9749C140.97 55.8877 140.626 55.7831 140.166 55.661C139.667 55.5285 139.275 55.3908 138.989 55.2478C138.703 55.1048 138.499 54.9392 138.377 54.7508C138.255 54.5625 138.194 54.3341 138.194 54.0656C138.194 53.7343 138.284 53.4448 138.466 53.1972C138.647 52.9461 138.9 52.7526 139.224 52.6166C139.552 52.4806 139.932 52.4126 140.364 52.4126C140.793 52.4126 141.177 52.4806 141.515 52.6166C141.854 52.7526 142.126 52.9461 142.331 53.1972C142.541 53.4448 142.664 53.7343 142.703 54.0656L141.751 54.2382C141.705 53.9348 141.559 53.6959 141.311 53.5216C141.067 53.3472 140.752 53.2548 140.364 53.2443C139.998 53.2304 139.7 53.2949 139.47 53.4379C139.243 53.5808 139.13 53.7744 139.13 54.0185C139.13 54.1545 139.172 54.2713 139.255 54.369C139.343 54.4666 139.501 54.559 139.732 54.6462C139.965 54.7334 140.303 54.8328 140.746 54.9444C141.245 55.0699 141.637 55.2077 141.923 55.3576C142.213 55.5041 142.419 55.6785 142.541 55.8807C142.663 56.0795 142.724 56.3254 142.724 56.6183C142.724 57.1623 142.523 57.5913 142.122 57.9051C141.721 58.2155 141.168 58.3707 140.464 58.3707Z" fill="#171717"/>
<rect x="191.151" y="40.9319" width="25.5742" height="25.5742" rx="12.7871" fill="#F6F7F9"/>
<g clip-path="url(#clip4_6_5676)">
<path d="M206.554 54.0098C206.554 53.8374 206.605 53.6688 206.701 53.5254C206.797 53.382 206.933 53.2703 207.093 53.2043C207.252 53.1383 207.427 53.1211 207.596 53.1547C207.765 53.1883 207.921 53.2714 208.043 53.3933C208.165 53.5152 208.248 53.6706 208.281 53.8397C208.315 54.0088 208.298 54.1841 208.232 54.3434C208.166 54.5027 208.054 54.6389 207.911 54.7347C207.767 54.8305 207.599 54.8816 207.426 54.8816C207.195 54.8816 206.973 54.7898 206.81 54.6263C206.646 54.4628 206.554 54.241 206.554 54.0098ZM203.067 54.0098C203.067 53.8374 203.118 53.6688 203.214 53.5254C203.31 53.382 203.446 53.2703 203.605 53.2043C203.764 53.1383 203.94 53.1211 204.109 53.1547C204.278 53.1883 204.433 53.2714 204.555 53.3933C204.677 53.5152 204.76 53.6706 204.794 53.8397C204.828 54.0088 204.81 54.1841 204.744 54.3434C204.678 54.5027 204.567 54.6389 204.423 54.7347C204.28 54.8305 204.111 54.8816 203.939 54.8816C203.708 54.8816 203.486 54.7898 203.322 54.6263C203.159 54.4628 203.067 54.241 203.067 54.0098ZM199.58 54.0098C199.58 53.8374 199.631 53.6688 199.727 53.5254C199.822 53.382 199.958 53.2703 200.118 53.2043C200.277 53.1383 200.452 53.1211 200.622 53.1547C200.791 53.1883 200.946 53.2714 201.068 53.3933C201.19 53.5152 201.273 53.6706 201.307 53.8397C201.34 54.0088 201.323 54.1841 201.257 54.3434C201.191 54.5027 201.079 54.6389 200.936 54.7347C200.792 54.8305 200.624 54.8816 200.451 54.8816C200.22 54.8816 199.998 54.7898 199.835 54.6263C199.671 54.4628 199.58 54.241 199.58 54.0098V54.0098Z" fill="#171717"/>
</g>
<rect x="22.0157" y="80.4553" width="61.8034" height="28.2742" rx="14.1371" fill="#5945FD"/>
<path d="M42.9701 98.5925V91.8968H45.0346C45.1028 91.8968 45.2221 91.8984 45.3926 91.9015C45.5631 91.9046 45.7259 91.917 45.8809 91.9387C46.3985 92.0069 46.831 92.196 47.1781 92.506C47.5284 92.8129 47.7919 93.2034 47.9686 93.6777C48.1453 94.152 48.2336 94.6743 48.2336 95.2447C48.2336 95.8151 48.1453 96.3374 47.9686 96.8117C47.7919 97.2859 47.5284 97.6781 47.1781 97.9881C46.831 98.2949 46.3985 98.4825 45.8809 98.5507C45.7259 98.5693 45.5616 98.5817 45.388 98.5879C45.2175 98.591 45.0997 98.5925 45.0346 98.5925H42.9701ZM43.821 97.8021H45.0346C45.1524 97.8021 45.2841 97.799 45.4298 97.7928C45.5755 97.7835 45.7026 97.7695 45.8111 97.7509C46.1769 97.6827 46.4729 97.5293 46.6992 97.2906C46.9255 97.0519 47.0914 96.7543 47.1967 96.3978C47.3021 96.0413 47.3548 95.657 47.3548 95.2447C47.3548 94.8231 47.3006 94.4341 47.1921 94.0776C47.0867 93.7211 46.9209 93.4251 46.6946 93.1895C46.4683 92.9539 46.1738 92.8036 45.8111 92.7385C45.7026 92.7168 45.574 92.7028 45.4252 92.6966C45.2764 92.6904 45.1462 92.6873 45.0346 92.6873H43.821V97.8021ZM50.7275 98.732C50.3524 98.732 50.0377 98.6638 49.7836 98.5274C49.5325 98.3879 49.3418 98.205 49.2116 97.9788C49.0845 97.7525 49.021 97.5045 49.021 97.2348C49.021 96.9713 49.0706 96.7435 49.1698 96.5513C49.2721 96.356 49.4147 96.1948 49.5976 96.0677C49.7805 95.9375 49.999 95.8352 50.2532 95.7608C50.4919 95.6957 50.7585 95.6399 51.0529 95.5934C51.3505 95.5438 51.6512 95.4989 51.955 95.4586C52.2588 95.4183 52.5424 95.3795 52.8059 95.3423L52.5083 95.5144C52.5176 95.068 52.4277 94.7379 52.2386 94.524C52.0526 94.3101 51.7303 94.2031 51.2715 94.2031C50.9677 94.2031 50.7011 94.2729 50.4717 94.4124C50.2454 94.5488 50.0858 94.772 49.9928 95.0819L49.207 94.8448C49.3279 94.4046 49.5619 94.059 49.9091 93.8079C50.2563 93.5568 50.7135 93.4313 51.2808 93.4313C51.7365 93.4313 52.127 93.5134 52.4525 93.6777C52.7811 93.8389 53.0167 94.0838 53.1593 94.4124C53.2306 94.5674 53.2755 94.7363 53.2941 94.9192C53.3127 95.099 53.322 95.2881 53.322 95.4865V98.5925H52.5874V97.3882L52.7594 97.4998C52.5703 97.9059 52.3053 98.2128 51.9643 98.4205C51.6264 98.6282 51.2141 98.732 50.7275 98.732ZM50.853 98.0392C51.1506 98.0392 51.4079 97.9865 51.6249 97.8811C51.845 97.7726 52.0216 97.6316 52.1549 97.458C52.2882 97.2813 52.375 97.0891 52.4153 96.8814C52.4618 96.7264 52.4866 96.5544 52.4897 96.3653C52.4959 96.1731 52.499 96.0258 52.499 95.9236L52.7873 96.0491C52.5176 96.0863 52.2526 96.1219 51.9922 96.156C51.7318 96.1901 51.4854 96.2273 51.2529 96.2676C51.0204 96.3048 50.8112 96.3498 50.6252 96.4025C50.4888 96.4459 50.3601 96.5017 50.2392 96.5699C50.1214 96.6381 50.0253 96.7264 49.9509 96.8349C49.8796 96.9403 49.844 97.0721 49.844 97.2301C49.844 97.3665 49.8781 97.4967 49.9463 97.6207C50.0176 97.7447 50.1261 97.8455 50.2718 97.923C50.4206 98.0005 50.6143 98.0392 50.853 98.0392ZM54.624 92.6827V91.8271H55.4516V92.6827H54.624ZM54.624 98.5925V93.5708H55.4516V98.5925H54.624ZM56.9398 98.5925V91.7574H57.7674V98.5925H56.9398ZM59.8601 100.824L60.8319 98.1833L60.8458 98.9645L58.6511 93.5708H59.5206L61.241 97.909H60.9435L62.5569 93.5708H63.3985L60.6645 100.824H59.8601Z" fill="white"/>
<rect x="88.4689" y="80.4553" width="61.8033" height="28.2742" rx="14.1371" fill="#F6F7F9"/>
<path d="M105.788 98.5925L103.849 91.8968H104.714L106.202 97.1929L107.685 91.9015L108.554 91.8968L110.042 97.1929L111.526 91.8968H112.395L110.456 98.5925H109.628L108.122 93.3429L106.615 98.5925H105.788ZM114.81 98.732C114.317 98.732 113.886 98.6235 113.517 98.4065C113.151 98.1864 112.866 97.8811 112.661 97.4905C112.457 97.0968 112.355 96.6381 112.355 96.1142C112.355 95.5655 112.455 95.0912 112.657 94.6914C112.858 94.2884 113.139 93.9784 113.498 93.7614C113.861 93.5413 114.286 93.4313 114.772 93.4313C115.278 93.4313 115.707 93.5475 116.06 93.78C116.417 94.0125 116.684 94.3442 116.86 94.7751C117.04 95.2059 117.118 95.719 117.093 96.3141H116.256V96.0166C116.246 95.3997 116.121 94.9394 115.879 94.6356C115.637 94.3287 115.278 94.1752 114.8 94.1752C114.289 94.1752 113.9 94.3395 113.633 94.6681C113.367 94.9967 113.233 95.4679 113.233 96.0816C113.233 96.6737 113.367 97.1325 113.633 97.458C113.9 97.7835 114.28 97.9462 114.772 97.9462C115.104 97.9462 115.392 97.8703 115.637 97.7184C115.882 97.5665 116.074 97.3479 116.214 97.0628L117.009 97.3371C116.814 97.7804 116.519 98.1245 116.126 98.3693C115.735 98.6111 115.296 98.732 114.81 98.732ZM112.954 96.3141V95.6492H116.665V96.3141H112.954ZM120.304 98.732C119.811 98.732 119.38 98.6235 119.011 98.4065C118.646 98.1864 118.36 97.8811 118.156 97.4905C117.951 97.0968 117.849 96.6381 117.849 96.1142C117.849 95.5655 117.95 95.0912 118.151 94.6914C118.353 94.2884 118.633 93.9784 118.993 93.7614C119.355 93.5413 119.78 93.4313 120.267 93.4313C120.772 93.4313 121.201 93.5475 121.555 93.78C121.911 94.0125 122.178 94.3442 122.355 94.7751C122.534 95.2059 122.612 95.719 122.587 96.3141H121.75V96.0166C121.741 95.3997 121.615 94.9394 121.373 94.6356C121.132 94.3287 120.772 94.1752 120.295 94.1752C119.783 94.1752 119.394 94.3395 119.128 94.6681C118.861 94.9967 118.728 95.4679 118.728 96.0816C118.728 96.6737 118.861 97.1325 119.128 97.458C119.394 97.7835 119.774 97.9462 120.267 97.9462C120.599 97.9462 120.887 97.8703 121.132 97.7184C121.377 97.5665 121.569 97.3479 121.708 97.0628L122.503 97.3371C122.308 97.7804 122.014 98.1245 121.62 98.3693C121.229 98.6111 120.791 98.732 120.304 98.732ZM118.449 96.3141V95.6492H122.159V96.3141H118.449ZM123.618 98.5925L123.622 91.8968H124.459V95.9887L126.566 93.5708H127.64L125.422 96.0816L127.9 98.5925H126.742L124.459 96.1746V98.5925H123.618ZM128.456 98.5925V91.7574H129.284V98.5925H128.456ZM131.376 100.824L132.348 98.1833L132.362 98.9645L130.167 93.5708H131.037L132.757 97.909H132.46L134.073 93.5708H134.915L132.181 100.824H131.376Z" fill="#595959"/>
<rect x="154.922" y="80.4553" width="61.8033" height="28.2742" rx="14.1371" fill="#F6F7F9"/>
<path d="M168.556 98.5925V91.8968H169.31L171.839 97.2301L174.355 91.8968H175.117V98.5879H174.331V93.7149L172.058 98.5925H171.616L169.342 93.7149V98.5925H168.556ZM178.56 98.732C178.061 98.732 177.63 98.6189 177.267 98.3926C176.908 98.1663 176.63 97.8532 176.435 97.4533C176.24 97.0535 176.142 96.5947 176.142 96.077C176.142 95.55 176.241 95.0881 176.44 94.6914C176.638 94.2946 176.919 93.9861 177.281 93.7661C177.644 93.5429 178.07 93.4313 178.56 93.4313C179.062 93.4313 179.495 93.5444 179.857 93.7707C180.22 93.9939 180.497 94.3054 180.69 94.7053C180.885 95.1021 180.983 95.5593 180.983 96.077C180.983 96.6009 180.885 97.0628 180.69 97.4626C180.494 97.8594 180.215 98.1709 179.853 98.3972C179.49 98.6204 179.059 98.732 178.56 98.732ZM178.56 97.9462C179.081 97.9462 179.468 97.7726 179.722 97.4254C179.977 97.0783 180.104 96.6288 180.104 96.077C180.104 95.5097 179.975 95.0587 179.718 94.7239C179.461 94.386 179.075 94.2171 178.56 94.2171C178.21 94.2171 177.921 94.2961 177.695 94.4542C177.469 94.6123 177.3 94.8309 177.188 95.1098C177.077 95.3888 177.021 95.7112 177.021 96.077C177.021 96.6412 177.151 97.0937 177.412 97.4347C177.672 97.7757 178.055 97.9462 178.56 97.9462ZM185.582 98.5925V96.077C185.582 95.8383 185.56 95.6089 185.517 95.3888C185.477 95.1687 185.404 94.9719 185.298 94.7983C185.196 94.6216 185.057 94.4821 184.88 94.3798C184.706 94.2775 184.486 94.2264 184.22 94.2264C184.012 94.2264 183.823 94.262 183.652 94.3333C183.485 94.4015 183.341 94.5069 183.22 94.6495C183.099 94.7921 183.004 94.9719 182.936 95.1889C182.871 95.4028 182.839 95.6554 182.839 95.9468L182.295 95.7794C182.295 95.2927 182.381 94.8758 182.555 94.5286C182.732 94.1783 182.978 93.9102 183.294 93.7242C183.614 93.5351 183.989 93.4406 184.42 93.4406C184.745 93.4406 185.022 93.4917 185.252 93.594C185.481 93.6963 185.672 93.8327 185.824 94.0032C185.976 94.1706 186.095 94.3597 186.182 94.5705C186.269 94.7782 186.329 94.9905 186.363 95.2075C186.4 95.4214 186.419 95.6244 186.419 95.8166V98.5925H185.582ZM182.002 98.5925V93.5708H182.746V94.9146H182.839V98.5925H182.002ZM190.432 98.5925C190.134 98.6514 189.84 98.6747 189.548 98.6623C189.26 98.653 189.003 98.5956 188.776 98.4902C188.55 98.3817 188.378 98.2143 188.26 97.9881C188.161 97.7897 188.107 97.5897 188.097 97.3882C188.091 97.1836 188.088 96.9527 188.088 96.6954V92.1758H188.916V96.6582C188.916 96.8628 188.917 97.038 188.92 97.1836C188.927 97.3293 188.959 97.4549 189.018 97.5603C189.13 97.7587 189.306 97.8749 189.548 97.909C189.793 97.9431 190.088 97.9338 190.432 97.8811V98.5925ZM187.07 94.2543V93.5708H190.432V94.2543H187.07ZM195.027 98.5925V96.077C195.027 95.8383 195.005 95.6089 194.962 95.3888C194.921 95.1687 194.849 94.9719 194.743 94.7983C194.641 94.6216 194.501 94.4821 194.325 94.3798C194.151 94.2775 193.931 94.2264 193.664 94.2264C193.457 94.2264 193.268 94.262 193.097 94.3333C192.93 94.4015 192.786 94.5069 192.665 94.6495C192.544 94.7921 192.449 94.9719 192.381 95.1889C192.316 95.4028 192.283 95.6554 192.283 95.9468L191.739 95.7794C191.739 95.2927 191.826 94.8758 192 94.5286C192.177 94.1783 192.423 93.9102 192.739 93.7242C193.058 93.5351 193.434 93.4406 193.864 93.4406C194.19 93.4406 194.467 93.4917 194.697 93.594C194.926 93.6963 195.117 93.8327 195.269 94.0032C195.421 94.1706 195.54 94.3597 195.627 94.5705C195.713 94.7782 195.774 94.9905 195.808 95.2075C195.845 95.4214 195.864 95.6244 195.864 95.8166V98.5925H195.027ZM191.447 98.5925V91.8968H192.19V95.5934H192.283V98.5925H191.447ZM197.166 98.5925V91.7574H197.993V98.5925H197.166ZM200.086 100.824L201.058 98.1833L201.072 98.9645L198.877 93.5708H199.747L201.467 97.909H201.169L202.783 93.5708H203.624L200.89 100.824H200.086Z" fill="#595959"/>
<rect x="22.0157" y="118.029" width="194.71" height="154.143" rx="13.9493" fill="#F6F7F9"/>
<rect x="31.3152" y="131.979" width="30.2236" height="113.92" rx="6.97467" fill="#D2D2D2"/>
<rect x="67.7869" y="170.339" width="30.2237" height="75.5593" rx="6.97467" fill="#D2D2D2"/>
<rect x="104.259" y="157.552" width="30.2237" height="88.3463" rx="6.97467" fill="#5945FD"/>
<rect x="140.73" y="178.476" width="30.2237" height="67.4221" rx="6.97467" fill="#E6E6E6"/>
<rect x="177.202" y="142.44" width="30.2237" height="103.458" rx="6.97467" fill="#E6E6E6"/>
<rect x="92.3434" y="123.841" width="54.6349" height="25.9493" rx="6.97467" fill="#5945FD"/>
<path d="M102.436 140.661V132.207H102.977V140.661H102.436ZM104.13 134.829C104.094 134.517 103.949 134.274 103.694 134.103C103.438 133.929 103.117 133.842 102.729 133.842C102.452 133.842 102.212 133.886 102.01 133.974C101.807 134.06 101.65 134.179 101.537 134.331C101.427 134.48 101.372 134.651 101.372 134.843C101.372 135.003 101.41 135.142 101.484 135.259C101.561 135.375 101.662 135.473 101.785 135.553C101.91 135.63 102.045 135.695 102.188 135.747C102.331 135.798 102.469 135.84 102.601 135.873L103.261 136.045C103.477 136.097 103.698 136.169 103.925 136.259C104.152 136.349 104.362 136.468 104.556 136.616C104.749 136.763 104.906 136.946 105.025 137.164C105.146 137.382 105.206 137.643 105.206 137.947C105.206 138.33 105.107 138.67 104.909 138.967C104.713 139.264 104.428 139.499 104.054 139.671C103.682 139.842 103.231 139.928 102.703 139.928C102.197 139.928 101.759 139.848 101.389 139.687C101.019 139.526 100.729 139.299 100.52 139.004C100.311 138.706 100.195 138.354 100.173 137.947H101.197C101.217 138.191 101.296 138.395 101.435 138.558C101.576 138.718 101.755 138.838 101.973 138.918C102.193 138.995 102.434 139.033 102.696 139.033C102.985 139.033 103.241 138.988 103.466 138.898C103.693 138.805 103.871 138.678 104.001 138.515C104.131 138.35 104.196 138.157 104.196 137.937C104.196 137.737 104.138 137.572 104.024 137.445C103.912 137.317 103.759 137.211 103.565 137.128C103.373 137.044 103.157 136.97 102.914 136.907L102.115 136.689C101.574 136.541 101.144 136.324 100.827 136.038C100.512 135.752 100.355 135.373 100.355 134.902C100.355 134.512 100.461 134.172 100.672 133.882C100.883 133.591 101.17 133.365 101.531 133.205C101.892 133.042 102.299 132.96 102.753 132.96C103.21 132.96 103.614 133.04 103.965 133.201C104.317 133.362 104.594 133.583 104.797 133.865C104.999 134.145 105.105 134.466 105.114 134.829H104.13ZM108.688 139.908C108.234 139.908 107.829 139.83 107.472 139.674C107.118 139.518 106.837 139.301 106.63 139.023C106.426 138.744 106.316 138.42 106.3 138.052H107.337C107.35 138.253 107.417 138.427 107.539 138.574C107.662 138.72 107.823 138.832 108.021 138.911C108.219 138.99 108.439 139.03 108.681 139.03C108.948 139.03 109.183 138.984 109.388 138.891C109.595 138.799 109.757 138.67 109.873 138.505C109.99 138.338 110.048 138.145 110.048 137.927C110.048 137.7 109.99 137.501 109.873 137.329C109.759 137.155 109.59 137.019 109.368 136.92C109.148 136.821 108.882 136.771 108.569 136.771H107.998V135.939H108.569C108.82 135.939 109.04 135.894 109.229 135.803C109.421 135.713 109.571 135.588 109.679 135.427C109.786 135.264 109.84 135.074 109.84 134.856C109.84 134.647 109.793 134.465 109.698 134.311C109.606 134.155 109.474 134.032 109.302 133.944C109.133 133.856 108.932 133.812 108.701 133.812C108.481 133.812 108.275 133.853 108.083 133.934C107.894 134.014 107.74 134.128 107.621 134.278C107.502 134.425 107.438 134.603 107.43 134.809H106.442C106.453 134.444 106.561 134.123 106.766 133.845C106.973 133.568 107.246 133.351 107.585 133.195C107.924 133.038 108.3 132.96 108.714 132.96C109.148 132.96 109.522 133.045 109.837 133.214C110.154 133.382 110.398 133.605 110.57 133.885C110.744 134.164 110.83 134.47 110.828 134.803C110.83 135.182 110.724 135.503 110.511 135.767C110.299 136.031 110.018 136.209 109.665 136.299V136.352C110.114 136.42 110.462 136.598 110.709 136.887C110.958 137.175 111.081 137.533 111.079 137.96C111.081 138.332 110.977 138.666 110.768 138.961C110.561 139.256 110.278 139.488 109.92 139.657C109.561 139.825 109.15 139.908 108.688 139.908ZM113.425 138.891L113.376 139.251C113.343 139.515 113.286 139.791 113.207 140.077C113.13 140.365 113.05 140.633 112.966 140.879C112.885 141.126 112.817 141.322 112.765 141.467H112.064C112.093 141.331 112.133 141.146 112.183 140.912C112.234 140.681 112.284 140.422 112.332 140.136C112.38 139.85 112.417 139.558 112.441 139.261L112.474 138.891H113.425ZM114.806 139.816V139.076L117.095 136.705C117.339 136.447 117.541 136.222 117.699 136.028C117.86 135.832 117.98 135.646 118.059 135.47C118.138 135.294 118.178 135.107 118.178 134.909C118.178 134.684 118.125 134.49 118.02 134.327C117.914 134.162 117.77 134.036 117.587 133.948C117.404 133.857 117.198 133.812 116.969 133.812C116.727 133.812 116.516 133.862 116.335 133.961C116.155 134.06 116.016 134.2 115.919 134.38C115.822 134.561 115.774 134.772 115.774 135.014H114.8C114.8 134.603 114.894 134.243 115.084 133.934C115.273 133.626 115.533 133.387 115.863 133.218C116.193 133.046 116.569 132.96 116.989 132.96C117.414 132.96 117.788 133.045 118.112 133.214C118.438 133.382 118.692 133.611 118.875 133.901C119.058 134.19 119.149 134.516 119.149 134.879C119.149 135.13 119.102 135.375 119.007 135.615C118.914 135.855 118.753 136.123 118.522 136.418C118.29 136.711 117.969 137.066 117.557 137.484L116.213 138.891V138.941H119.258V139.816H114.806ZM120.222 138.495V137.669L123.145 133.053H123.795V134.268H123.383L121.292 137.577V137.63H125.298V138.495H120.222ZM123.429 139.816V138.244L123.435 137.868V133.053H124.403V139.816H123.429ZM126.858 139.879C126.678 139.879 126.523 139.815 126.393 139.687C126.263 139.557 126.198 139.401 126.198 139.218C126.198 139.038 126.263 138.884 126.393 138.756C126.523 138.626 126.678 138.561 126.858 138.561C127.039 138.561 127.194 138.626 127.324 138.756C127.454 138.884 127.519 139.038 127.519 139.218C127.519 139.339 127.488 139.45 127.426 139.552C127.367 139.651 127.288 139.73 127.189 139.789C127.09 139.849 126.98 139.879 126.858 139.879ZM130.938 139.928C130.416 139.926 129.97 139.788 129.6 139.515C129.23 139.242 128.947 138.845 128.752 138.323C128.556 137.801 128.458 137.173 128.458 136.438C128.458 135.704 128.556 135.078 128.752 134.558C128.95 134.039 129.234 133.643 129.604 133.37C129.976 133.097 130.42 132.96 130.938 132.96C131.455 132.96 131.899 133.098 132.269 133.373C132.638 133.646 132.921 134.042 133.117 134.562C133.315 135.079 133.415 135.704 133.415 136.438C133.415 137.175 133.317 137.805 133.121 138.327C132.925 138.846 132.642 139.244 132.272 139.519C131.902 139.792 131.457 139.928 130.938 139.928ZM130.938 139.046C131.396 139.046 131.753 138.823 132.011 138.376C132.271 137.929 132.401 137.283 132.401 136.438C132.401 135.876 132.341 135.402 132.222 135.014C132.106 134.625 131.937 134.33 131.717 134.129C131.499 133.927 131.239 133.825 130.938 133.825C130.482 133.825 130.124 134.05 129.864 134.499C129.605 134.948 129.474 135.594 129.471 136.438C129.471 137.001 129.53 137.478 129.646 137.868C129.765 138.255 129.934 138.549 130.152 138.749C130.37 138.947 130.632 139.046 130.938 139.046ZM136.941 139.928C136.419 139.926 135.973 139.788 135.603 139.515C135.233 139.242 134.95 138.845 134.754 138.323C134.559 137.801 134.461 137.173 134.461 136.438C134.461 135.704 134.559 135.078 134.754 134.558C134.953 134.039 135.237 133.643 135.606 133.37C135.979 133.097 136.423 132.96 136.941 132.96C137.458 132.96 137.902 133.098 138.272 133.373C138.641 133.646 138.924 134.042 139.12 134.562C139.318 135.079 139.417 135.704 139.417 136.438C139.417 137.175 139.319 137.805 139.124 138.327C138.928 138.846 138.645 139.244 138.275 139.519C137.905 139.792 137.46 139.928 136.941 139.928ZM136.941 139.046C137.399 139.046 137.756 138.823 138.014 138.376C138.274 137.929 138.404 137.283 138.404 136.438C138.404 135.876 138.344 135.402 138.225 135.014C138.109 134.625 137.94 134.33 137.72 134.129C137.502 133.927 137.242 133.825 136.941 133.825C136.485 133.825 136.127 134.05 135.867 134.499C135.608 134.948 135.477 135.594 135.474 136.438C135.474 137.001 135.533 137.478 135.649 137.868C135.768 138.255 135.937 138.549 136.155 138.749C136.373 138.947 136.635 139.046 136.941 139.046Z" fill="white"/>
<path d="M119.662 154.065L116.139 147.962L123.186 147.962L119.662 154.065Z" fill="#5945FD"/>
<path d="M200.133 23.0758C200.133 22.2561 200.797 21.5916 201.617 21.5916H208.961C209.781 21.5916 210.445 22.2561 210.445 23.0758V25.5267C210.445 26.3464 209.781 27.0109 208.961 27.0109H201.617C200.797 27.0109 200.133 26.3464 200.133 25.5267V23.0758Z" stroke="black" stroke-opacity="0.4" stroke-width="0.524453"/>
<path d="M211.235 23.2524V25.3503C211.657 25.1726 211.932 24.7593 211.932 24.3013C211.932 23.8434 211.657 23.4301 211.235 23.2524Z" fill="black" fill-opacity="0.4"/>
<rect x="200.919" y="22.3784" width="8.73738" height="3.84599" rx="0.69927" fill="black"/>
<path fill-rule="evenodd" clip-rule="evenodd" d="M193.04 22.5186C194.202 22.5186 195.32 22.9652 196.162 23.7659C196.226 23.8277 196.327 23.8269 196.39 23.7641L196.996 23.1523C197.028 23.1204 197.045 23.0773 197.045 23.0324C197.045 22.9875 197.027 22.9446 196.995 22.9131C194.784 20.7946 191.296 20.7946 189.086 22.9131C189.054 22.9446 189.036 22.9875 189.035 23.0324C189.035 23.0773 189.053 23.1204 189.084 23.1523L189.691 23.7641C189.753 23.827 189.855 23.8278 189.918 23.7659C190.76 22.9651 191.878 22.5186 193.04 22.5186ZM193.04 24.5091C193.679 24.5091 194.295 24.7464 194.768 25.175C194.832 25.2359 194.933 25.2345 194.995 25.1721L195.601 24.5602C195.633 24.5281 195.65 24.4846 195.65 24.4393C195.649 24.3941 195.631 24.3509 195.598 24.3195C194.157 22.9788 191.925 22.9788 190.484 24.3195C190.451 24.3509 190.433 24.3941 190.432 24.4394C190.432 24.4846 190.449 24.5281 190.481 24.5602L191.087 25.1721C191.149 25.2345 191.25 25.2359 191.314 25.175C191.787 24.7467 192.402 24.5094 193.04 24.5091ZM194.253 25.8485C194.254 25.8939 194.237 25.9376 194.204 25.9694L193.157 27.0265C193.126 27.0576 193.084 27.0751 193.04 27.0751C192.997 27.0751 192.955 27.0576 192.924 27.0265L191.876 25.9694C191.844 25.9376 191.826 25.8938 191.827 25.8485C191.828 25.8031 191.848 25.7601 191.882 25.7297C192.551 25.1639 193.53 25.1639 194.199 25.7297C194.233 25.7602 194.253 25.8031 194.253 25.8485Z" fill="black"/>
<path fill-rule="evenodd" clip-rule="evenodd" d="M185.71 21.5024H185.186C184.896 21.5024 184.661 21.7372 184.661 22.0269V26.5722C184.661 26.8618 184.896 27.0966 185.186 27.0966H185.71C186 27.0966 186.235 26.8618 186.235 26.5722V22.0269C186.235 21.7372 186 21.5024 185.71 21.5024ZM182.738 22.7261H183.263C183.552 22.7261 183.787 22.9609 183.787 23.2506V26.5721C183.787 26.8618 183.552 27.0966 183.263 27.0966H182.738C182.449 27.0966 182.214 26.8618 182.214 26.5721V23.2506C182.214 22.9609 182.449 22.7261 182.738 22.7261ZM180.815 23.9499H180.291C180.001 23.9499 179.766 24.1847 179.766 24.4744V26.5722C179.766 26.8618 180.001 27.0966 180.291 27.0966H180.815C181.105 27.0966 181.34 26.8618 181.34 26.5722V24.4744C181.34 24.1847 181.105 23.9499 180.815 23.9499ZM178.368 24.9988H177.843C177.554 24.9988 177.319 25.2336 177.319 25.5233V26.5722C177.319 26.8618 177.554 27.0966 177.843 27.0966H178.368C178.658 27.0966 178.892 26.8618 178.892 26.5722V25.5233C178.892 25.2336 178.658 24.9988 178.368 24.9988Z" fill="black"/>
<path d="M37.8682 21.117C39.0513 21.117 40.0807 21.9582 40.0807 23.9556V23.9633C40.0807 25.8301 39.2395 26.9364 37.8452 26.9364C36.8272 26.9364 36.0667 26.3333 35.89 25.4844L35.8823 25.4422H36.858L36.8695 25.4806C37.0155 25.8685 37.3573 26.122 37.8452 26.122C38.7248 26.122 39.0974 25.2616 39.1396 24.2014C39.1396 24.1592 39.1435 24.1169 39.1435 24.0747H39.0667C38.8631 24.5126 38.3791 24.9005 37.6185 24.9005C36.5545 24.9005 35.8093 24.1246 35.8093 23.0721V23.0644C35.8093 21.939 36.6659 21.117 37.8682 21.117ZM37.8644 24.14C38.4905 24.14 38.9706 23.6867 38.9706 23.0606V23.0529C38.9706 22.4191 38.4905 21.9236 37.8759 21.9236C37.2651 21.9236 36.7773 22.4114 36.7773 23.0299V23.0376C36.7773 23.679 37.2344 24.14 37.8644 24.14ZM41.6778 23.2066C41.3283 23.2066 41.067 22.9377 41.067 22.5997C41.067 22.2578 41.3283 21.9927 41.6778 21.9927C42.0312 21.9927 42.2886 22.2578 42.2886 22.5997C42.2886 22.9377 42.0312 23.2066 41.6778 23.2066ZM41.6778 26.0567C41.3283 26.0567 41.067 25.7917 41.067 25.4498C41.067 25.108 41.3283 24.8429 41.6778 24.8429C42.0312 24.8429 42.2886 25.108 42.2886 25.4498C42.2886 25.7917 42.0312 26.0567 41.6778 26.0567ZM45.9637 26.7981V25.7341H43.2518V24.9236C43.9701 23.6752 44.7576 22.3999 45.5104 21.2552H46.9125V24.9159H47.6577V25.7341H46.9125V26.7981H45.9637ZM44.1737 24.939H45.9791V22.0465H45.9215C45.353 22.9146 44.7115 23.9402 44.1737 24.8813V24.939ZM49.8079 26.7981V22.2309H49.7426L48.3636 23.2066V22.2732L49.8117 21.2552H50.7989V26.7981H49.8079Z" fill="black"/>
</g>
</g>
<rect x="84.863" y="17.3071" width="62.9343" height="17.3069" rx="8.65347" fill="#030303"/>
<circle cx="137.571" cy="25.9609" r="5.50675" fill="#0E0B0F"/>
<circle cx="137.514" cy="25.9038" r="2.82759" fill="#161424"/>
<circle cx="137.514" cy="25.9041" r="1.69655" fill="#0F0F2A"/>
<circle cx="137.514" cy="25.3382" r="0.565517" fill="#393752"/>
<circle cx="125.742" cy="25.7807" r="1.13103" fill="#30B94D"/>
<defs>
<filter id="filter0_f_6_5676" x="0.427146" y="88.6328" width="1.57338" height="2.09773" filterUnits="userSpaceOnUse" color-interpolation-filters="sRGB">
<feFlood flood-opacity="0" result="BackgroundImageFix"/>
<feBlend mode="normal" in="SourceGraphic" in2="BackgroundImageFix" result="shape"/>
<feGaussianBlur stdDeviation="0.262226" result="effect1_foregroundBlur_6_5676"/>
</filter>
<filter id="filter1_f_6_5676" x="0.427146" y="89.6816" width="1.57338" height="14.6846" filterUnits="userSpaceOnUse" color-interpolation-filters="sRGB">
<feFlood flood-opacity="0" result="BackgroundImageFix"/>
<feBlend mode="normal" in="SourceGraphic" in2="BackgroundImageFix" result="shape"/>
<feGaussianBlur stdDeviation="0.262226" result="effect1_foregroundBlur_6_5676"/>
</filter>
<filter id="filter2_f_6_5676" x="0.427146" y="121.148" width="1.57338" height="2.09773" filterUnits="userSpaceOnUse" color-interpolation-filters="sRGB">
<feFlood flood-opacity="0" result="BackgroundImageFix"/>
<feBlend mode="normal" in="SourceGraphic" in2="BackgroundImageFix" result="shape"/>
<feGaussianBlur stdDeviation="0.262226" result="effect1_foregroundBlur_6_5676"/>
</filter>
<filter id="filter3_f_6_5676" x="0.427146" y="122.197" width="1.57338" height="31.4671" filterUnits="userSpaceOnUse" color-interpolation-filters="sRGB">
<feFlood flood-opacity="0" result="BackgroundImageFix"/>
<feBlend mode="normal" in="SourceGraphic" in2="BackgroundImageFix" result="shape"/>
<feGaussianBlur stdDeviation="0.262226" result="effect1_foregroundBlur_6_5676"/>
</filter>
<filter id="filter4_f_6_5676" x="0.427146" y="163.105" width="1.57338" height="2.09773" filterUnits="userSpaceOnUse" color-interpolation-filters="sRGB">
<feFlood flood-opacity="0" result="BackgroundImageFix"/>
<feBlend mode="normal" in="SourceGraphic" in2="BackgroundImageFix" result="shape"/>
<feGaussianBlur stdDeviation="0.262226" result="effect1_foregroundBlur_6_5676"/>
</filter>
<filter id="filter5_f_6_5676" x="0.427146" y="164.154" width="1.57338" height="31.4671" filterUnits="userSpaceOnUse" color-interpolation-filters="sRGB">
<feFlood flood-opacity="0" result="BackgroundImageFix"/>
<feBlend mode="normal" in="SourceGraphic" in2="BackgroundImageFix" result="shape"/>
<feGaussianBlur stdDeviation="0.262226" result="effect1_foregroundBlur_6_5676"/>
</filter>
<filter id="filter6_f_6_5676" x="236.43" y="132.686" width="1.57332" height="2.09773" filterUnits="userSpaceOnUse" color-interpolation-filters="sRGB">
<feFlood flood-opacity="0" result="BackgroundImageFix"/>
<feBlend mode="normal" in="SourceGraphic" in2="BackgroundImageFix" result="shape"/>
<feGaussianBlur stdDeviation="0.262226" result="effect1_foregroundBlur_6_5676"/>
</filter>
<filter id="filter7_f_6_5676" x="236.43" y="133.735" width="1.57332" height="49.823" filterUnits="userSpaceOnUse" color-interpolation-filters="sRGB">
<feFlood flood-opacity="0" result="BackgroundImageFix"/>
<feBlend mode="normal" in="SourceGraphic" in2="BackgroundImageFix" result="shape"/>
<feGaussianBlur stdDeviation="0.262226" result="effect1_foregroundBlur_6_5676"/>
</filter>
<filter id="filter8_f_6_5676" x="-0.294402" y="-2.2944" width="239.191" height="488.134" filterUnits="userSpaceOnUse" color-interpolation-filters="sRGB">
<feFlood flood-opacity="0" result="BackgroundImageFix"/>
<feBlend mode="normal" in="SourceGraphic" in2="BackgroundImageFix" result="shape"/>
<feGaussianBlur stdDeviation="1.1472" result="effect1_foregroundBlur_6_5676"/>
</filter>
<filter id="filter9_f_6_5676" x="0.852799" y="-1.1472" width="236.897" height="485.84" filterUnits="userSpaceOnUse" color-interpolation-filters="sRGB">
<feFlood flood-opacity="0" result="BackgroundImageFix"/>
<feBlend mode="normal" in="SourceGraphic" in2="BackgroundImageFix" result="shape"/>
<feGaussianBlur stdDeviation="0.573601" result="effect1_foregroundBlur_6_5676"/>
</filter>
<filter id="filter10_f_6_5676" x="3.99953" y="1.99977" width="230.956" height="479.546" filterUnits="userSpaceOnUse" color-interpolation-filters="sRGB">
<feFlood flood-opacity="0" result="BackgroundImageFix"/>
<feBlend mode="normal" in="SourceGraphic" in2="BackgroundImageFix" result="shape"/>
<feGaussianBlur stdDeviation="0.573601" result="effect1_foregroundBlur_6_5676"/>
</filter>
<filter id="filter11_f_6_5676" x="1.65655" y="-0.343817" width="235.75" height="484.119" filterUnits="userSpaceOnUse" color-interpolation-filters="sRGB">
<feFlood flood-opacity="0" result="BackgroundImageFix"/>
<feBlend mode="normal" in="SourceGraphic" in2="BackgroundImageFix" result="shape"/>
<feGaussianBlur stdDeviation="2.0076" result="effect1_foregroundBlur_6_5676"/>
</filter>
<linearGradient id="paint0_linear_6_5676" x1="1.73771" y1="88.6328" x2="1.73771" y2="90.3442" gradientUnits="userSpaceOnUse">
<stop/>
<stop offset="1" stop-opacity="0"/>
</linearGradient>
<linearGradient id="paint1_linear_6_5676" x1="3.04884" y1="88.6328" x2="1.21325" y2="88.6328" gradientUnits="userSpaceOnUse">
<stop/>
<stop offset="1" stop-color="#AEAEAE" stop-opacity="0"/>
</linearGradient>
<linearGradient id="paint2_linear_6_5676" x1="1.73771" y1="102.11" x2="1.73771" y2="104.891" gradientUnits="userSpaceOnUse">
<stop stop-opacity="0"/>
<stop offset="1"/>
</linearGradient>
<linearGradient id="paint3_linear_6_5676" x1="1.73777" y1="120.624" x2="1.73777" y2="122.722" gradientUnits="userSpaceOnUse">
<stop/>
<stop offset="1" stop-opacity="0"/>
</linearGradient>
<linearGradient id="paint4_linear_6_5676" x1="3.0489" y1="120.624" x2="1.21331" y2="120.624" gradientUnits="userSpaceOnUse">
<stop/>
<stop offset="1" stop-color="#AEAEAE" stop-opacity="0"/>
</linearGradient>
<linearGradient id="paint5_linear_6_5676" x1="1.73777" y1="151.304" x2="1.73777" y2="154.189" gradientUnits="userSpaceOnUse">
<stop stop-opacity="0"/>
<stop offset="1"/>
</linearGradient>
<linearGradient id="paint6_linear_6_5676" x1="1.73777" y1="162.58" x2="1.73777" y2="164.678" gradientUnits="userSpaceOnUse">
<stop/>
<stop offset="1" stop-opacity="0"/>
</linearGradient>
<linearGradient id="paint7_linear_6_5676" x1="3.0489" y1="162.58" x2="1.21331" y2="162.58" gradientUnits="userSpaceOnUse">
<stop/>
<stop offset="1" stop-color="#AEAEAE" stop-opacity="0"/>
</linearGradient>
<linearGradient id="paint8_linear_6_5676" x1="1.73777" y1="193.261" x2="1.73777" y2="196.145" gradientUnits="userSpaceOnUse">
<stop stop-opacity="0"/>
<stop offset="1"/>
</linearGradient>
<linearGradient id="paint9_linear_6_5676" x1="236.693" y1="132.162" x2="236.693" y2="134.26" gradientUnits="userSpaceOnUse">
<stop/>
<stop offset="1" stop-opacity="0"/>
</linearGradient>
<linearGradient id="paint10_linear_6_5676" x1="235.382" y1="132.162" x2="237.217" y2="132.162" gradientUnits="userSpaceOnUse">
<stop/>
<stop offset="1" stop-color="#AEAEAE" stop-opacity="0"/>
</linearGradient>
<linearGradient id="paint11_linear_6_5676" x1="236.693" y1="181.723" x2="236.693" y2="184.083" gradientUnits="userSpaceOnUse">
<stop stop-opacity="0"/>
<stop offset="1"/>
</linearGradient>
<radialGradient id="paint12_radial_6_5676" cx="0" cy="0" r="1" gradientUnits="userSpaceOnUse" gradientTransform="translate(119.818 113.516) rotate(90) scale(195.024 217.579)">
<stop stop-color="#879194"/>
<stop offset="1"/>
</radialGradient>
<clipPath id="clip0_6_5676">
<rect x="2" width="234.603" height="483.545" rx="39.334" fill="white"/>
</clipPath>
<clipPath id="clip1_6_5676">
<rect x="5.67175" y="3.67139" width="227.719" height="476.088" rx="35.6628" fill="white"/>
</clipPath>
<clipPath id="clip2_6_5676">
<rect x="10.9156" y="8.91577" width="217.123" height="465.714" rx="30.9427" fill="white"/>
</clipPath>
<clipPath id="clip3_6_5676">
<rect width="217.958" height="471.953" fill="white" transform="translate(10.3908 6.05859)"/>
</clipPath>
<clipPath id="clip4_6_5676">
<rect width="13.9495" height="13.9495" fill="white" transform="translate(196.964 46.7444)"/>
</clipPath>
</defs>
</svg>
