<svg width="20" height="20" viewBox="0 0 20 20" fill="none" xmlns="http://www.w3.org/2000/svg">
<path d="M10 19.6801C9.676 19.6828 9.35756 19.5958 9.08 19.4286L5.61143 17.4001C4.31292 16.6739 3.22912 15.6178 2.46958 14.3385C1.71003 13.0592 1.30165 11.6021 1.28571 10.1144V4.5715C1.28587 4.19798 1.4004 3.83347 1.61391 3.52699C1.82743 3.22052 2.12967 2.98678 2.48 2.85721L9.37143 0.325786C9.77731 0.177212 10.2227 0.177212 10.6286 0.325786L17.52 2.85721C17.8703 2.98678 18.1726 3.22052 18.3861 3.52699C18.5996 3.83347 18.7141 4.19798 18.7143 4.5715V10.1144C18.6983 11.6021 18.29 13.0592 17.5304 14.3385C16.7709 15.6178 15.6871 16.6739 14.3886 17.4001L10.92 19.4286C10.6424 19.5958 10.324 19.6828 10 19.6801ZM10 1.64579C9.95466 1.63753 9.9082 1.63753 9.86286 1.64579L2.97143 4.18864C2.8938 4.21739 2.82719 4.26984 2.78104 4.33855C2.73489 4.40727 2.71153 4.48877 2.71428 4.5715V10.1144C2.73086 11.3522 3.07409 12.5638 3.70925 13.6264C4.34442 14.689 5.24898 15.565 6.33143 16.1658L9.8 18.2001C9.86133 18.2336 9.93011 18.2511 10 18.2511C10.0699 18.2511 10.1387 18.2336 10.2 18.2001L13.6686 16.1658C14.751 15.565 15.6556 14.689 16.2907 13.6264C16.9259 12.5638 17.2691 11.3522 17.2857 10.1144V4.5715C17.2861 4.4907 17.2616 4.41174 17.2156 4.34531C17.1696 4.27887 17.1043 4.22818 17.0286 4.20007L10.1371 1.66864C10.0932 1.65272 10.0467 1.64497 10 1.64579Z" fill="#171717"/>
<path d="M9.37143 12.7715C9.2028 12.7704 9.03957 12.7119 8.90857 12.6058L6.46857 10.5486C6.32308 10.4266 6.23201 10.2518 6.2154 10.0627C6.19879 9.87355 6.258 9.68555 6.38 9.54006C6.502 9.39457 6.67679 9.30351 6.86594 9.28689C7.05508 9.27028 7.24308 9.32949 7.38857 9.45149L9.30285 11.0629L12.5714 7.46292C12.6987 7.32198 12.8768 7.23738 13.0665 7.22773C13.2562 7.21809 13.4419 7.28419 13.5829 7.41149C13.7238 7.53879 13.8084 7.71687 13.818 7.90655C13.8277 8.09623 13.7616 8.28198 13.6343 8.42292L9.93143 12.5372C9.86053 12.6144 9.77377 12.6753 9.6771 12.7157C9.58043 12.7562 9.47615 12.7752 9.37143 12.7715Z" fill="#171717"/>
</svg>
