<svg width="28" height="28" viewBox="0 0 28 28" fill="none" xmlns="http://www.w3.org/2000/svg">
<path d="M6.26327 2.25136C6.32437 2.56268 6.47276 2.85946 6.71425 3.09805C7.19433 3.57813 7.90136 3.70033 8.49201 3.45883C8.68986 3.37737 8.87607 3.25807 9.0361 3.09805C9.10884 3.02531 9.16994 2.94675 9.22522 2.86528C9.24268 2.842 9.25723 2.81582 9.27178 2.78963C9.28923 2.76053 9.31251 2.73144 9.32706 2.69943C9.32415 2.69943 9.31833 2.70234 9.31542 2.70525C9.64711 2.08551 9.55983 1.29701 9.0361 0.773289C8.51238 0.249564 7.72679 0.162276 7.10414 0.493969C7.10414 0.491059 7.10705 0.48524 7.10996 0.48233C7.07795 0.499788 7.05176 0.520155 7.01976 0.537612C6.99357 0.55216 6.9703 0.566708 6.94411 0.584166C6.86264 0.639448 6.78408 0.700549 6.71134 0.773289C6.55132 0.933316 6.43202 1.11953 6.35056 1.31738C6.26909 1.51523 6.23126 1.72472 6.23126 1.93421C6.23126 2.03896 6.23999 2.1437 6.26036 2.24845L6.26327 2.25136Z" fill="#D1F701"/>
<path d="M10.27 6.65636L15.3937 11.7801C16.0338 12.4202 17.0755 12.4202 17.7156 11.7801C17.765 11.7307 17.8087 11.6812 17.8494 11.6288C17.8465 11.6288 17.8407 11.6288 17.8378 11.6318C18.347 10.9887 18.312 10.0548 17.7156 9.45829L12.5918 4.33451C12.1234 3.86607 11.4454 3.74387 10.8606 3.95918C10.8606 3.95918 10.8606 3.95918 10.8606 3.95627C10.8548 3.95627 10.8461 3.96209 10.8402 3.965C10.817 3.97373 10.7937 3.98536 10.7704 3.99409C10.6918 4.02901 10.6133 4.06974 10.5376 4.1163C10.526 4.12502 10.5144 4.13375 10.4998 4.14248C10.4183 4.19776 10.3398 4.26177 10.2641 4.33451C9.94408 4.65457 9.78406 5.07646 9.78406 5.49544C9.78406 5.70493 9.82479 5.91442 9.90335 6.11227C9.98482 6.31012 10.1041 6.49634 10.2641 6.65636H10.27Z" fill="#D1F701"/>
<path d="M16.8195 5.48654C17.1396 5.80659 17.5614 5.96662 17.9804 5.96662C18.1899 5.96662 18.3994 5.92589 18.5973 5.84733C18.7951 5.76586 18.9813 5.64657 19.1414 5.48654C19.2141 5.4138 19.2752 5.33524 19.3305 5.25668C19.3508 5.22759 19.3654 5.19849 19.3828 5.16939C19.4003 5.13739 19.4236 5.10829 19.441 5.07629C19.4381 5.07629 19.4352 5.07629 19.4294 5.0792C19.7495 4.45945 19.6593 3.68551 19.1384 3.16469L16.45 0.476235C15.9321 -0.0416713 15.1552 -0.134778 14.5355 0.185276C14.5355 0.182367 14.5355 0.179457 14.5384 0.173638C14.5064 0.191095 14.4773 0.211462 14.4453 0.23183C14.4162 0.249287 14.3871 0.266745 14.358 0.284202C14.2765 0.339484 14.198 0.400585 14.1281 0.473325C13.8866 0.714821 13.7383 1.0116 13.6772 1.32001C13.5782 1.83792 13.7266 2.39365 14.1281 2.79517L16.8195 5.48654Z" fill="#D1F701"/>
<path d="M27.8098 14.5351C27.8098 14.5351 27.8157 14.5351 27.8215 14.538C27.804 14.506 27.7836 14.4769 27.7633 14.4449C27.7458 14.4158 27.7284 14.3867 27.7109 14.3576C27.6556 14.2762 27.5945 14.1976 27.5218 14.1249C26.8817 13.4847 25.84 13.4847 25.1999 14.1249L22.5086 16.8162C22.107 17.2177 21.9587 17.7735 22.0576 18.2914C22.1187 18.6027 22.2671 18.8995 22.5086 19.1381C22.5813 19.2108 22.6599 19.2719 22.7384 19.3272C22.7675 19.3476 22.7966 19.3621 22.8257 19.3796C22.8577 19.397 22.8868 19.4203 22.9188 19.4378C22.9188 19.4348 22.9188 19.4319 22.9159 19.4261C23.5327 19.7462 24.3096 19.656 24.8304 19.1352L27.5218 16.4438C28.0397 15.9259 28.1328 15.149 27.8127 14.5293L27.8098 14.5351Z" fill="#D1F701"/>
<path d="M15.7619 16.8688C15.823 17.1801 15.9714 17.4769 16.2129 17.7155C16.2624 17.765 16.3118 17.8057 16.3642 17.8493C16.3642 17.8464 16.3642 17.8406 16.3613 17.8377C17.0043 18.3469 17.9383 18.312 18.5348 17.7155L23.6585 12.5917C24.127 12.1233 24.2492 11.4454 24.0339 10.8605C24.0339 10.8605 24.0339 10.8605 24.0368 10.8605C24.0368 10.8547 24.031 10.846 24.0281 10.8402C24.0193 10.8169 24.0077 10.7936 23.999 10.7703C23.964 10.6918 23.9233 10.6132 23.8768 10.5376C23.868 10.5259 23.8593 10.5143 23.8506 10.4997C23.7953 10.4183 23.7313 10.3397 23.6585 10.2641C23.417 10.0226 23.1203 9.87418 22.8119 9.81308C22.2939 9.71415 21.7382 9.86254 21.3367 10.2641L16.2129 15.3878C15.8114 15.7894 15.663 16.3451 15.7619 16.863V16.8688Z" fill="#D1F701"/>
<path d="M24.8936 9.03311C24.9664 9.10585 25.0449 9.16695 25.1264 9.22223C25.1497 9.23969 25.1758 9.25424 25.202 9.26879C25.2311 9.28624 25.2602 9.30952 25.2922 9.32407C25.2922 9.32116 25.2893 9.31534 25.2864 9.31243C25.9062 9.64412 26.6946 9.55684 27.2184 9.03311C27.7421 8.50939 27.8294 7.7238 27.4977 7.10115C27.5006 7.10115 27.5064 7.10406 27.5093 7.10697C27.4919 7.07496 27.4715 7.04877 27.454 7.01677C27.4395 6.99058 27.425 6.96731 27.4075 6.94112C27.3522 6.85965 27.2911 6.78109 27.2184 6.70835C26.5783 6.06824 25.5366 6.06824 24.8965 6.70835C24.2564 7.34846 24.2564 8.39009 24.8965 9.0302L24.8936 9.03311Z" fill="#D1F701"/>
<path d="M21.2791 24.8936C20.799 24.4135 20.092 24.2913 19.5013 24.5328C19.3035 24.6143 19.1173 24.7336 18.9572 24.8936C18.8845 24.9664 18.8234 25.0449 18.7681 25.1264C18.7507 25.1497 18.7361 25.1759 18.7216 25.202C18.7041 25.2311 18.6808 25.2602 18.6663 25.2922C18.6692 25.2922 18.675 25.2893 18.6779 25.2864C18.3462 25.9062 18.4335 26.6947 18.9572 27.2184C19.481 27.7421 20.2666 27.8294 20.8892 27.4977C20.8892 27.5006 20.8863 27.5064 20.8834 27.5093C20.9154 27.4919 20.9416 27.4715 20.9736 27.4541C20.9998 27.4395 21.0231 27.425 21.0492 27.4075C21.1307 27.3522 21.2093 27.2911 21.282 27.2184C21.9221 26.5783 21.9221 25.5366 21.282 24.8965L21.2791 24.8936Z" fill="#D1F701"/>
<path d="M17.7236 21.3382L12.5998 16.2144C12.3583 15.973 12.0616 15.8246 11.7531 15.7635C11.5466 15.7227 11.3342 15.7227 11.1247 15.7635C10.8133 15.8246 10.5166 15.973 10.278 16.2144C10.2285 16.2639 10.1878 16.3134 10.1441 16.3657C10.147 16.3657 10.1529 16.3657 10.1558 16.3628C9.6466 17.0059 9.68152 17.9398 10.278 18.5363L15.4018 23.6601C15.8702 24.1285 16.5481 24.2507 17.133 24.0354C17.133 24.0354 17.133 24.0354 17.133 24.0383C17.1388 24.0383 17.1475 24.0325 17.1533 24.0296C17.1766 24.0209 17.1999 24.0092 17.2232 24.0005C17.3017 23.9656 17.3803 23.9248 17.4559 23.8783C17.4676 23.8696 17.4792 23.8608 17.4937 23.8521C17.5752 23.7968 17.6538 23.7328 17.7294 23.6601C17.9709 23.4186 18.1193 23.1218 18.1804 22.8134C18.2415 22.5021 18.2095 22.1791 18.0902 21.8823C18.0087 21.6845 17.8895 21.4982 17.7294 21.3382H17.7236Z" fill="#D1F701"/>
<path d="M11.1741 22.5075C10.7726 22.106 10.2168 21.9576 9.69892 22.0565C9.3876 22.1176 9.09082 22.266 8.85224 22.5075C8.7795 22.5802 8.71839 22.6588 8.66311 22.7402C8.64275 22.7693 8.6282 22.7984 8.61074 22.8275C8.59328 22.8595 8.57001 22.8886 8.55255 22.9206C8.55546 22.9206 8.55837 22.9206 8.56419 22.9177C8.24413 23.5346 8.33433 24.3114 8.85515 24.8322L11.5465 27.5236C12.0644 28.0415 12.8413 28.1346 13.461 27.8146C13.461 27.8175 13.461 27.8204 13.4581 27.8262C13.4901 27.8087 13.5192 27.7884 13.5512 27.768C13.5803 27.7505 13.6094 27.7331 13.6385 27.7156C13.72 27.6603 13.7985 27.5992 13.8713 27.5265C14.5114 26.8864 14.5114 25.8448 13.8713 25.2047L11.1799 22.5133L11.1741 22.5075Z" fill="#D1F701"/>
<path d="M3.54775 19.8075C3.48665 19.4962 3.33826 19.1994 3.09676 18.9608C3.02402 18.888 2.94547 18.8269 2.864 18.7717C2.84072 18.7542 2.81453 18.7397 2.78835 18.7251C2.75925 18.7077 2.73016 18.6844 2.69815 18.6698C2.69815 18.6727 2.70106 18.6786 2.70397 18.6815C2.08423 18.3498 1.29573 18.4371 0.772007 18.9608C0.248282 19.4845 0.160994 20.2701 0.492687 20.8928C0.489777 20.8928 0.483958 20.8898 0.481048 20.8869C0.498506 20.9189 0.518873 20.9451 0.536331 20.9771C0.550879 21.0033 0.565426 21.0266 0.582884 21.0528C0.638166 21.1342 0.699267 21.2128 0.772007 21.2855C1.41212 21.9257 2.45375 21.9257 3.09385 21.2855C3.41391 20.9655 3.57394 20.5436 3.57394 20.1246C3.57394 20.0199 3.56521 19.9151 3.54484 19.8104L3.54775 19.8075Z" fill="#D1F701"/>
<path d="M12.141 12.0563C12.2225 11.8585 12.2603 11.649 12.2603 11.4395C12.2603 11.3348 12.2516 11.23 12.2312 11.1253C12.1701 10.814 12.0218 10.5172 11.7803 10.2786C11.7308 10.2291 11.6813 10.1884 11.629 10.1448C11.629 10.1477 11.629 10.1535 11.6319 10.1564C10.9889 9.64721 10.0549 9.68213 9.45841 10.2786L4.33464 15.4024C3.86619 15.8708 3.74399 16.5487 3.9593 17.1336C3.9593 17.1336 3.9593 17.1336 3.95639 17.1336C3.95639 17.1394 3.96221 17.1481 3.96512 17.1539C3.97385 17.1772 3.98549 17.2005 3.99422 17.2238C4.02913 17.3023 4.06986 17.3809 4.11642 17.4565C4.12515 17.4682 4.13388 17.4798 4.1426 17.4914C4.19789 17.5729 4.2619 17.6515 4.33464 17.7271C4.97474 18.3672 6.01638 18.3672 6.65648 17.7271L11.7803 12.6033C11.9403 12.4433 12.0596 12.2571 12.141 12.0593V12.0563Z" fill="#D1F701"/>
<path d="M0.23183 13.5459C0.249287 13.575 0.266745 13.6041 0.284202 13.6332C0.339484 13.7147 0.400585 13.7933 0.473325 13.866C0.71482 14.1075 1.0116 14.2559 1.32001 14.317C1.42476 14.3374 1.5295 14.3461 1.63425 14.3461C1.84374 14.3461 2.05323 14.3053 2.25108 14.2268C2.44893 14.1453 2.63515 14.026 2.79517 13.866L5.48654 11.1746C6.12665 10.5345 6.12665 9.49289 5.48654 8.85278C5.4138 8.78005 5.33524 8.71894 5.25377 8.66366C5.22467 8.6433 5.19558 8.62875 5.16648 8.61129C5.13448 8.59383 5.10538 8.57056 5.07338 8.5531C5.07338 8.55601 5.07338 8.55892 5.07629 8.56474C4.45946 8.24468 3.6826 8.33488 3.16178 8.85569L0.476235 11.5441C-0.0416713 12.0621 -0.134778 12.8389 0.185276 13.4587C0.182367 13.4587 0.179457 13.4587 0.173638 13.4557C0.191095 13.4878 0.211462 13.5168 0.23183 13.5489V13.5459Z" fill="#D1F701"/>
</svg>
